<svg width="350" height="350" fill="none" xmlns="http://www.w3.org/2000/svg"><path d="M0 0h350v350H0V0z" fill="#333"/><path d="M160.68 172.696c2.126-1.767 4.269-1.767 6.445.051l.503.456 23.184 23.185.438.385a4.646 4.646 0 006.136-.387 4.644 4.644 0 00.387-6.136l-.385-.438-6.008-6.012 1.358-1.362.492-.442c2.126-1.767 4.269-1.767 6.445.051l.503.456 21.734 21.738a18.61 18.61 0 01-5.674 11.623 18.607 18.607 0 01-11.88 5.113l-.958.023h-55.8a18.6 18.6 0 01-18.507-16.754l31.095-31.108.492-.442zM203.4 128a18.598 18.598 0 0118.577 17.67l.023.93v44.57l-15.312-15.308-.698-.637c-5.84-5.091-13.252-5.101-19.046-.079l-.716.651-1.428 1.423-10.662-10.658-.698-.637c-5.84-5.091-13.252-5.101-19.046-.079l-.716.651L129 191.17V146.6a18.598 18.598 0 0117.67-18.577l.93-.023h55.8zm-13.903 23.25l-.591.033a4.65 4.65 0 000 9.234l.544.033.591-.033a4.647 4.647 0 004.1-4.617 4.65 4.65 0 00-4.1-4.617l-.544-.033z" fill="#b3b3b3"/><path d="M0 0h350v350H0V0z" stroke="#b3b3b3"/><path d="M160.68 172.696c2.126-1.767 4.269-1.767 6.445.051l.503.456 23.184 23.185.438.385a4.646 4.646 0 006.136-.387 4.644 4.644 0 00.387-6.136l-.385-.438-6.008-6.012 1.358-1.362.492-.442c2.126-1.767 4.269-1.767 6.445.051l.503.456 21.734 21.738a18.61 18.61 0 01-5.674 11.623 18.607 18.607 0 01-11.88 5.113l-.958.023h-55.8a18.6 18.6 0 01-18.507-16.754l31.095-31.108.492-.442zM203.4 128a18.598 18.598 0 0118.577 17.67l.023.93v44.57l-15.312-15.308-.698-.637c-5.84-5.091-13.252-5.101-19.046-.079l-.716.651-1.428 1.423-10.662-10.658-.698-.637c-5.84-5.091-13.252-5.101-19.046-.079l-.716.651L129 191.17V146.6a18.598 18.598 0 0117.67-18.577l.93-.023h55.8zm-13.903 23.25l-.591.033a4.65 4.65 0 000 9.234l.544.033.591-.033a4.647 4.647 0 004.1-4.617 4.65 4.65 0 00-4.1-4.617l-.544-.033z" stroke="#b3b3b3"/></svg>