<svg data-name="Capa 2" xmlns="http://www.w3.org/2000/svg" viewBox="0 0 459.42 117.91"><path d="M446.85 68.1c-.53.64-1.37 1.02-2.22 1.63-.5-1.19-.65-2.11-1.18-2.67-.78-.84-2.16-2.22-2.7-2-2.56 1.08-4.21-1.06-6.33-1.35.63-.23 1.27-.46 1.9-.69l-.06-.45h-4.02c.3.45.47.7.9 1.35-1.25-.17-2.45-.07-2.58-.4-.97-2.49-2.39-1.04-3.28-.55-.85-.64-1.37-1.35-1.99-1.45-1.75-.27-3.55-.23-5.31-.45-.57-.07-1.1-.54-1.87-.95 1.81-1.39 3.27-1.75 4.97-.77.71.41 1.79 1.05 2.32.79 2.52-1.21 4.62.38 6.89.71 1.02.15 2.23.51 3.06.12 2.93-1.38 5.89.13 8.8-.36.5-.08 1.04.03 1.55.09 2.89.36 5.77.77 8.66 1.09.47.05.98-.23 1.58-.38v-2.73c-1.74-1.15-3.98-.86-5.3-1.69-2.11-1.34-3.8.95-5.78-.31.1-2.3.22-4.73.32-7.06-2.02-1.01-2.81.18-3.36 1.55-2.48-.53-3.59.02-5 2.46-.8-.11-1.65-.22-2.69-.37.9-1.41 1.61-2.51 2.13-3.32-.97-.63-2.51-1.42-2.44-1.62.48-1.29-.6-1.27-1.12-1.8-1.58-1.6-3.59-1.2-5.49-1.35q-.57 1.88-2.68 2.58c.14-1.94-2.56-2.74-1.39-5.15-3.14 1.62-5.73 1.09-6.45-1.43-.42-1.45-1.15-1.79-2.31-2.06-2.65-.63-5.3-1.24-7.92-1.95-2.72-.74-5.43-1.55-8.12-2.38-1.49-.46-2.95-1.04-4.42-1.56 1.77-.55 3.43-1.08 4.94.06.04-1.43-.97-1.59-2.06-1.8-4.99-.97-9.96-2-14.96-2.96-.63-.12-1.33.1-2.43.21 1.79 1.91 3.87 1.12 5.53 1.76 1.73.66 3.57 1 5.37 1.48-.06.22-.11.45-.17.67-5.07-1.16-10.26-1.68-15.29-3.02l.06-.67c.93-.09 1.86-.17 2.79-.26 0-.21.01-.43.02-.64-1.8-.23-3.62-.35-5.4-.71-6.57-1.31-13.13-2.71-19.69-4.06-1.85-.38-3.7-.76-5.56-1.06-5.77-.91-11.55-1.79-17.32-2.66-2.16-.32-4.4-1.08-6.46-.75-1.9.31-3.46-.1-5.17-.5-3.13-.74-6.26-1.56-9.44-1.99-7.01-.95-14.06-1.66-21.09-2.51-4.94-.6-9.88-1.24-14.81-1.91-1.34-.18-2.8-1.03-3.96-.7-2.58.74-5.11-.46-7.62.21-.38.1-1.05.11-1.19-.1-.63-.94-1.2-.71-2.08-.32-1.44.64-2.87.17-4.2-.56-1.94-1.08-3.88-1.96-6.13-.74-.35.19-.96-.1-1.44-.17-.81-.12-1.74-.54-2.42-.29-2.38.84-4.49.15-6.62-.75-1.33-.57-2.61-1.1-3.9.24-.31.31-1.18.19-1.76.09-.59-.1-1.14-.6-1.71-.59-2.68.01-5.13-.63-7.55-1.8-1.07-.52-2.28-1.13-3.73.08-.8.67-2.96.69-3.88.08-3.25-2.16-7.22-.87-10.51-2.56-.35-.18-.96.15-1.45.21-.61.07-1.24.17-1.84.11-3.52-.3-7.05-.57-10.56-1-1.41-.17-2.6-.11-3.13.83-1.79-.36-3.19-.77-4.62-.91-2.61-.25-5.24-1.63-7.88.1-.59.39-1.55.64-2.18.44-1.45-.45-2.81-1.2-4.2-1.83l-1.66 1.47c-.15-.93-.27-1.65-.38-2.31-1.45.2-2.68.33-3.89.56-1.01.19-2.04.4-2.97.81-2.62 1.17-3.44.87-4.62-2.09-2.14 2.65-4.55 2.31-6.55.82-2 .9-3.63 1.63-5.35 2.4-.45-.9-.79-1.57-1.13-2.25-.5.76-1 1.52-1.36 2.07-1.23-.58-2.53-1.7-3.2-1.41-2.23.98-3.82-.01-5.04-.89-3.63.62-6.82 3.22-9.85-.41-.17-.21-.56-.32-.85-.34-2.92-.18-5.85-.47-8.77-.43-2.71.04-5.42.46-8.14.67-2.62.2-5.29.73-7.84.4-2.63-.34-5.09 2.06-7.69.25-.12-.08-.49-.02-.59.11-1.68 1.96-3.31.56-5.1-.14-.42.7-.84 1.39-1.43 2.36-1.48-1.2-3.33.98-5.17-.91-1.26-1.3-3.9.41-5.52-1.34.17.53.33 1.05.55 1.76h-4.31c-.63-.67-1.34-1.42-2.11-2.23-1.03.25-2.01.49-3.01.74.28.69.49 1.22.77 1.91h-2.97c-.45-.78-.89-1.55-1.37-2.39-.55.22-1 .29-1.29.54-1.52 1.35-2.92 2.07-4.89.53-.72-.56-2.32-.57-3.25-.18-1.53.63-3 .46-4.52.61-3.06.31-6.79-.99-8.62 3.14-2.58-1.83-5.02-2.22-7.48-.17-.34.28-1.17.51-1.4.31-2.11-1.76-3.98-.18-5.79.49-.72.27-1.39 1.52-1.5 2.39-.12.98.41 2.05.66 3.11 3.22-.77 6.46-1.55 10.12-2.43.02 1.22.03 2.39.05 3.56-1.26.17-2.53.34-3.89.53-.7 2.24-.99 2.68-3.36 2.2-3.58-.73-5.93 1.77-8.81 2.88-.21.08-.28.53-.5.97.59.23 1.58.59 1.57.62-.7 2.14 1.37 2.09 2.4 2.78-.12.56-.07 1.06-.31 1.33-2.4 2.77-3.55 6.03-4.21 9.59-.31 1.68-.9 3.26-2.54 4.47-2.92 2.16-2.98 5.64-3.67 9.08l2.08-1.02c.15.16.29.32.44.47-.54.69-1.48 1.33-1.55 2.06-.25 2.66-2.35 3.17-4.19 4.06-1.25.61-1.93 1.54-1.48 3.39 1.25-.13 2.49-.26 4.38-.46C6 57.02 5.36 57.6 4.75 58.14c.88 2.09 2.96 1.6 4.68 2.62-1.36 2.8-2.73 5.6-4.18 8.56l1.67.85c-.84 3.63-1.68 7.24-2.52 10.85-.21 0-.5-.07-.54 0-.97 1.64-1.03 3.82-3.48 4.88 1.22.37 1.89.57 2.62.8-.11.4-.17.69-.27.97-.59 1.63-1.25 3.24-1.77 4.89-.3.94-.25 2.01-.6 2.93-.64 1.69-.5 2.73 1.1 3.24 1.45.46 3.05.51 4.59.57 1.18.05 2.38-.15 3.88-.27-.76 2.78-1.39 5.06-1.97 7.19.93 1.98 2.45 2.73 4.32 2.98 1.84.25 3.69.51 5.52.83.48.08.99.32 1.37.63 2.29 1.93 2.72 1.91 4.87-.23 2.21.56 4.33 1.09 6.45 1.63-.02.18-.05.37-.07.55-.52.23-1.05.46-1.94.85 1.66.54 2.84.92 4.03 1.31l-.08.08h.13v-.01c3.45-.37 6.89-.75 10.39-1.13-.21-.61-.39-1.17-.58-1.73.14-.11.28-.23.42-.34 1.56.97 3.11 1.95 4.68 2.94-.27.15-.53.31-1.16.67 1.78 0 3.09.23 4.26-.07 1.07-.28 1.91-.7 2.8.31.21.23.76.2 1.16.22 3.95.22 7.9.46 11.85.64 6.39.29 12.79.57 19.19.8 5.56.2 11.13.37 16.69.43 1.13.01 2.62-1.1 3.35-.67 2.25 1.31 4.55.56 6.79.69 3.77.21 7.56.24 11.34.28 3.41.03 6.81-.64 10.22-.1 1.54.25 2.27-.59 2.63-1.54h5.12c.25.42.61 1.01.91 1.5 6.7 0 13.21.02 19.73-.01 2.31-.01 2.31-.07 3.83-2 .16-.2.39-.34.6-.51-.78-.56-1.46-1.04-2.64-1.88h5.03c-.33.74-.56 1.27-.88 1.99.9.33 1.71.63 2.65.98-.5.4-.85.68-1.83 1.47 5.58-.21 10.46-.4 15.33-.58 0-.13.02-.27.03-.4-1.2-.07-2.39-.15-3.63-.22-.48-2.64 1.85-.7 2.59-1.91.07-.31.22-.99.4-1.82h5.36c.32 1.21.57 2.19.82 3.15-.7.25-1.2.43-1.69.61.03.21.07.42.1.64 8.66-.2 17.31-.4 25.82-.6.07-1.47.13-2.59.19-3.72 3.02-1.14 3.58-1.16 6.97.13-2.64-.08-2.56 1.9-3.32 3.35 3.76 0 7.42.01 11.07-.01.4 0 1.1-.14 1.14-.33.49-2.3 2.75-1.48 3.85-2.57 1.42 1.72-.48 1.65-.91 2.3h14.97c-.5-.77-.7-1.09-.77-1.2.5-.8.98-1.48 1.37-2.21.46-.88 1.88-1.01 1.93-.16.08 1.27.74 1.13 1.51 1.45.61.25.98 1.1 1.54 1.77.87-.09 1.83-.19 3.37-.34-1.3-.48-1.98-.74-2.83-1.05 1.18-.91 2.08-1.61 3.1-2.39.57.96.74 1.94 2.16 1.81 2.47-.23 4.98-.08 7.48-.14 1.41-.03 3.02.43 3.63-1.62.1-.34 1.04-.59 1.6-.6 1.24-.03 2.49.12 3.83.2.5.79 1.05 1.65 1.74 2.74 1.78-2.25 3.24-3.28 5.29-2.46.32.66.63 1.28.91 1.86 1.19-.17 2.22-.51 3.22-.42 2.43.21 4.84.63 7.26.93 1.04.13 2.09.13 3.14.2 0-.19 0-.38.01-.58-1.09-.09-2.19-.18-3.51-.28 2.16-.73 4.5.34 6.33-1.41-1-1.29-2.05-.53-3.01-.5-1.06.03-2.12 0-3.18 0v-.77c2.78-.1 5.57-.06 8.34-.34 2.71-.28 5.7.27 7.86-2.25.35-.41 1.42-.19 2.16-.26l.39.78c-.46.21-.93.43-1.62.75 3.11 0 5.87.07 8.63-.02 3.65-.11 7.29-.39 10.94-.49 3.84-.11 7.8.49 11.02-2.44.27-.25.79-.27 1.2-.3 5.62-.52 11.24-1.07 16.86-1.53 3.34-.28 6.69-.41 10.04-.64.45-.03.89-.25 1.33-.38-.02-.21-.03-.42-.05-.63-2.01 0-4.03-.01-6.04 0-1.99.02-3.98.06-5.97.11-2.09.05-4.24.43-6.25.06-1.94-.36-4.09 1.27-6.1-.61.93-.41 2.08-.56 2.23-1.03.48-1.54 1.54-1.14 2.54-1.08 4.39.26 8.61-1.1 12.94-1.38.27-.02.51-.32 1.14-.73-.59-1.15-1.18-2.29-1.79-3.46-.84.75-1.34 1.2-1.89 1.69-.34-.4-.64-.59-.71-.85-.13-.48-.13-1-.17-1.41 2.46-1.53 5.81.35 8.02-2.73-1.89-.75-3.63-1.33-5.27-2.11-1.91-.9-2.74 1.72-4.63 1.23.17-.58.34-1.13.56-1.88-1.82-.09-2.9-1.09-3.39-2.76-.43-.55-.86-1.1-1.41-1.8.85-.4 1.49-.7 2.12-.99.13-.81.26-1.59.41-2.5 1.72 0 3.28-.1 4.82.02 3.94.31 7.87.78 11.81 1.06 1.05.07 2.27.2 2.91-1.24.18-.42 1.28-.62 1.95-.6 3.66.09 7.32.39 10.99.42 7.22.05 14.44-.03 21.66-.08 2.38-.02 4.75-.1 7.13-.18 2.29-.08 4.59-.17 6.88-.29.83-.04 1.66-.26 2.49-.28 3.77-.09 7.54-.13 11.31-.21.17 0 .33-.2.49-.31-.13-.37-.26-.74-.37-1.02 4.84-1.57 9.65-3.13 14.67-4.75-.96-2.32 1.46-2.65 2.47-3.83-2.27-.78-4.27-1.62-6.36-2.13-1.25-.31-2.65-.38-3.7.9zM3.71 84.33c.27-1.2.5-2.22.72-3.22.34-.17.68-.34 1.17-.59-.19 1.52.01 3.01-1.89 3.81zm5.62-14.42c-.2-.18-.4-.36-.61-.54.31-.31.61-.63.94-.92.01-.01.41.33.39.38-.21.38-.47.73-.72 1.09zM21.2 28.47c.03-.55.05-1.11.12-1.66 0-.04.51-.06.51-.04.1.56.17 1.13.24 1.69h-.87zm1.89-9.56c-.03-.48-.09-.97-.08-1.45 0-.08.31-.15.48-.22l.39 1.46c-.26.07-.52.14-.79.21zm6.52-2.82c.14 1.39.49 2.86-1.77 3.34-.51-1.98.52-2.71 1.77-3.34zM25.3 23c1.76-1.2 3.01-1.83 4.81-1.19-1.1 2.46-2.88.74-4.81 1.19zm9.87 88.82h2.95c-1.15.71-1.8 1.28-2.95 0zM46.25 9.88c-.19 2.62-1.88 2.92-4.02 3.21-3.16.43-6.25 1.32-9.38 1.92-.97.18-2.01.03-3.55.03.7-.9 1.11-1.42 1.51-1.92 1.61-.87.35-2.76 1.38-3.88 4.67-1.83 7.24-1.67 8.49.75.98-.62 1.87-1.45 2.92-1.78 1.12-.36 2.38-.26 4.24-.41-.82 1.05-1.54 1.55-1.58 2.1zm78.31 104.04c-.22-.36-.52-.65-.46-.79.12-.28.44-.49.67-.72.12.24.34.5.32.73-.02.23-.29.44-.54.79zm12.57.96l-1.95-.42c.04-.24.09-.47.13-.71.63.13 1.26.25 1.89.38-.02.25-.05.5-.07.76zm3.37.23c1.82-2.2 3.12-2.47 4.94-1-.97.68-3.46 1.19-4.94 1zm5.08-.98c.84-.38 1.69-.76 2.93-1.32-.9 1.95-.93 1.99-2.93 1.32zm6.46-.04c-.02-.18-.05-.35-.07-.53h3.27c0 .18.01.35.02.53h-3.21zm4.03.08q3.51-1.57 4.54.09c-1.54-.02-2.92 1.19-4.54-.09zm20.07-101.99h-12.28c.78-.82 1.05-1.06 1.26-1.34.23-.31.41-.66.73-1.19-.54-.2-.92-.5-1.24-.44-1.04.19-2.07.5-3.33.82.07.32.22.96.49 2.08-1.76-.32-3.3-.6-4.85-.87-.7-.12-1.51-.51-2.08-.29-1.42.54-2.53.55-3.76-.52-.42-.36-1.63-.13-2.31.19-2.76 1.32-5.36 2.34-7.73-.76-.38-.49-1.52-.4-2.39-.59-.29.86-.52 1.53-.82 2.39h-20.34c.54-1.2.9-2.02 1.41-3.14-4.89 1.14-9.68-.89-14.54.58-.11.9-.2 1.68-.3 2.53-.37.02-.72.15-.96.04-.84-.4-1.67-.83-2.43-1.35-1.15-.78-2.13-.59-3.12.28-2.19 1.94-2.2 1.93-3.61-.79-.29.71-.5 1.21-.71 1.73-.84-.6-1.68-1.2-2.53-1.81-.14.12-.28.24-.42.35.25.44.51.89.87 1.51-7.09.62-14.12.24-21.16.33-6.91.08-13.79-.12-21.26.33.93-1.82 1.49-2.91 1.95-3.82 2.73-.35 5.2-.76 7.68-.94 1.33-.09 2.73.5 4.02.3 4.28-.69 8.51-.43 12.78-.03 1.52.14 3.1-.36 4.64-.58.4-.06.82-.26 1.2-.19 6.77 1.21 13.58.2 20.37.39 5.03.15 10.06-.02 15.09-.04 2.83-.01 5.66-.02 8.48 0 4.41.02 8.83.32 13.22.04 4.68-.3 9.32.48 13.97.07 2.45-.22 4.87.97 7.43-.28 1-.49 2.71.69 4.12.78 4.48.29 8.97.41 13.46.64.79.04 1.56.33 2.34.5 0 .28.01.57.02.85h-5.36c-.11 1.86 2.74-.3 1.98 2.23zm2.36.2c-.01-.16-.03-.33-.04-.49l1.56-.33c.03.27.06.55.08.82h-1.61zm2.74-2.83c.82-.1 1.42-.17 1.99-.24.55 1.08 1.05 2.08 1.56 3.08-2.93.37-3.12.23-3.56-2.84zm6.73-.43q1.84.25 2.48 3.33c-1.63-.62-2.15-1.87-2.48-3.33zm4.18 107.65c-.44-.38-.72-.63-1-.87.25-.26.48-.71.75-.73.29-.02.77.29.88.57.08.2-.33.58-.62 1.03zm1.21-104l-1.35-.63c.09-.18.22-.52.26-.51.45.11.89.27 1.33.42-.08.24-.16.47-.24.71zm7.1 103.19c-1.2.09-2.55.19-3.9.3-.04-.15-.09-.3-.13-.45.55-.22 1.1-.44 1.69-.68-.52-.59-.97-1.1-1.67-1.9 1.29-.26 2.24-.55 3.2-.59.26-.01.55.74.82 1.14-1.8.77.58 1.29-.02 2.17zm.14-102.46c-.66-.28-1.29-.76-1.76-1.3-.1-.12.5-.84 1.04-1.73.76.95 1.29 1.57 1.72 2.25.03.04-.8.86-1 .78zm6.25 102.34l-.73-.09.21-2.07c.28.02.56.05.84.07-.11.7-.21 1.4-.32 2.1zm19.02-.08c-.08-.16-.16-.32-.23-.48.35-.27.67-.7 1.06-.77.29-.05.67.34 1.41.77l-2.24.48zm5.99-103.48c-2.02 1.12-3.58 3.34-6.21 3.07-2.96-.3-6.08.62-8.83-1.07 1.13-.62 2.2-1.49 3.42-1.8.95-.24 2.08.22 3.12.37-.23-.76-.38-1.52.74-1.6 1.35-.1 2.71-.17 4.06-.16 1.16 0 2.32.14 3.64.23.02.22.2.89.06.97zm4.93 102.53c2.85-1.35 5.34-.67 7.75-.29-2.46.06-4.8 1.77-7.75.29zm14.78-97.85c-6.29-.23-12.6-.47-19.26-.71.67-1.52 1.14-2.57 1.7-3.83 2.62-1.34 5.44.05 8.24.21 1.21.07 2.26.5 3.54-.2 1.19-.64 2.49.23 2.82 1.41.45 1.61 1.4.7 2.17.76.31.49.64.97.91 1.48.08.14-.04.39-.11.89zm-.71-2.48c.58-1.45 1.61-.23 2.43 0h-2.43zm8.06 96.49c.71.18 1.42.36 2.09.54-.11 1.08-.74 1-2.09-.54zm-4.76-94.19c2.63-.63 5.17-.74 7.86-.05 2.21.57 4.65.38 6.97.24 1.18-.07 2.1-.25 3.14.64 2.05 1.73 2.99 1.53 5.01-.87 1.2.96 2.41 1.92 3.63 2.89-9.12.19-17.95-.51-26.61-2.85zm26.8 2.79c1.44.14 2.47.23 3.61.34-1.04 1.58-1.28 1.57-3.61-.34zm7.76 1.82q.81-1.32 2.68 0h-2.68zm4.51-.08c1.11-.1 2.21-.2 3.68-.33-.51-.78-.77-1.17-1.03-1.56.2-.15.44-.38.47-.35.73.6 1.44 1.23 2.05 1.99.99.45 2.42-.04 3.23 1.36-3.78.73-5.17.61-8.4-1.1zm13.43 2.25c-1.12-.13-2.24-.25-3.36-.38l.09-.83c1.12.12 2.24.25 3.36.37l-.09.84zm9.58-1.96c.04.43.1.86.09 1.29 0 .04-.48.06-.73.09-.03-.46-.05-.92-.08-1.39h.72zm-6.59 2.27v-.45c.59-.07 1.2-.24 1.78-.2 2.18.16 4.36.3 6.51.64 1.08.17 2.57.07 2.72 1.76-3.68-.56-7.34-1.16-11.01-1.75zm14.66 2.31c-1.18-.18-2.34-.35-3.5-.53.75-.43 1.47-1 2.28-1.16 1.03-.21 1.51.46 1.22 1.69zm6.2 80.52c1.43-.14 2.33-.22 3.22-.31-.86 1.74-1.76 1.66-3.22.31zm1.03-80.07c1.19-.14 3.12-1.16 5.14.68-2.29 1.11-3.97-.54-5.14-.68zM345.1 84.4c-.34-.55-.62-1-.89-1.45-.49.42-.88.75-1.33 1.14-.6-.65-1.2-1.3-1.96-2.13 1-.68 1.97-1.34 2.99-2.03.92.62 1.75 1.19 2.71 1.84-.47.81-.89 1.55-1.52 2.63zm.69-5.58c1.77.69 2.87 1.12 4.09 1.6q-2.26 1.08-4.09-1.6zm8.31 5.24c-.69-.13-1.38-.26-2.04-.38-1.18 1.76-1.42 1.87-3.85 1.73.05-.37.05-.74.17-1.07.1-.27.35-.48.54-.73-.49-.32-.94-.61-1.39-.89l.06-.63c1.26-.08 2.58-.41 3.78-.16 1.05.21 1.97 1.06 2.95 1.63-.07.17-.15.34-.22.51zm6.68-52.39c-4.07-.63-8.14-1.27-12.21-1.9.05-.3.09-.6.14-.91 4.06.63 8.12 1.27 12.19 1.91-.04.3-.07.6-.11.9zm1.31-4.43l-1.47-.33.21-.45 1.35.27c-.03.17-.07.34-.1.51zm9.93 1.69c-.81-.13-1.63-.26-2.99-.47 1.56-1.07 2.29-.42 2.99.47zm-8.17 3.19l.24-.9c3.32.55 6.83.21 9.76 2.54-3.33-.55-6.67-1.1-10-1.64zm13.16.85c1.75.47 3.55-.46 5.03 1.45-2.75 1.05-3.98.71-5.03-1.45zm22.89 25.17c-.09 0-.2-.29-.52-.8.68.29 1.04.44 1.41.6-.3.08-.59.2-.89.2zm15.22 2.38c-2.63-1.06-5.66-.19-8.58-1.58 3.46-1.34 8.12-.71 10.39 1.35-.74.11-1.37.41-1.81.23zM398.86 33.3v.02-.02zM33.07 115.77c3.2.18 6.41.33 9.54-.88H32.55c.17.35.34.87.53.88zm270.51-2.3c-.51.09-1 .23-1.51.35.01.05.02.1.04.15 1.08-.08 2.16-.16 3.24-.23-.01-.16-.03-.32-.04-.47-.57.07-1.15.11-1.72.21zm45.75-6.7c0 .16.01.31.02.47l4.28-.27-.14-.2h-4.17zm89.86-58.51c-.5-.35-1-.71-1.49-1.06-.21.29-.41.58-.62.88.45.33.88.72 1.38.94.11.05.48-.49.73-.76zm-173.73 66.21v.41h2.7v-.41h-2.7zm105.99-24.68l1.93.21c.02-.23.03-.47.05-.7h-1.96c0 .16 0 .33-.01.49zM27.79 115.81c.02.12.04.24.05.36l3.02-.33c-.01-.13-.03-.26-.04-.39l-3.03.36zm430.78-56.28c-.33.06-.63.33-.94.51.23.25.47.71.7.71.31 0 .62-.36 1.08-.66-.41-.28-.66-.6-.85-.57zm-444.53 52.2v.37h2.42c-.06-.12-.11-.25-.17-.37h-2.26zm301.06-.62l1.79.09c0-.18.01-.36.02-.55h-1.79c0 .15-.01.31-.02.46zm-2.14 1.95h1.2c0-.12 0-.23.01-.35-.4-.03-.8-.05-1.19-.08 0 .14 0 .28-.01.43zm-298.95 1.07c-.31.06-.6.2-.92.31h1.7v-.32c-.26 0-.52-.04-.77.01zm264.66.22v.11h2.19c0-.08-.02-.16-.03-.24-.72.04-1.45.08-2.17.13zm120.24-81.06c.82-.02 1.65-.02 2.93-.02-1.44-1.37-2.18-.57-2.93.02zm-.04 0v.04c.02-.01.03-.03.05-.04h-.04zm-39.8 53.26c-.82-.21-1.65-.42-2.47-.62l2.22 1.29c.08-.22.17-.44.25-.66zm-55.75 24.82c.05.23.11.47.16.7l1.89-.45-.06-.42c-.66.06-1.32.11-1.99.17zM51.93 9.59c1.11.31 1.89.53 2.67.76q-1.13-1.06-2.67-.76zm106.22-.23c.5.33 1.01.66 1.51.99.12-.19.25-.39.37-.58-.52-.31-1.03-.62-1.55-.93-.11.17-.22.35-.34.52zm83.56 4.27c-.22-.03-.48.24-.72.38.22.27.44.54.74.92.28-.35.61-.59.58-.75-.05-.23-.37-.51-.6-.54zm-16.28-.31l.06-.61c-.71.04-1.42.09-2.14.13.69.16 1.38.31 2.07.47z" fill="#0190f8" data-name="Capa 1"/></svg>