<svg data-name="Capa 2" xmlns="http://www.w3.org/2000/svg" viewBox="0 0 460.81 160.69"><path d="M456.71 50.55c-.32.68-.6 1.29-1.11 2.38-.41-2.24-.39-4.15-1.15-5.66-.75-1.48-2.3-2.55-3.59-3.89.43-.39.72-.68 1.03-.94 2.64-2.19 2.16-6.74-1.02-7.91-1.82-.67-3.9-.64-5.86-.91-.69-.1-1.38-.16-2.44-.28.18-2.58.23-4.97.54-7.32.25-1.92.12-3.64-.85-5.22l-.7.03c-.25 1.75-.5 3.49-.79 5.45-1.47-.43-2.55-.75-3.96-1.17.46-1.94.88-3.72 1.28-5.43.79-.09 1.38-.15 1.88-.21-1.42-1.05-2.72-2.01-4.24-3.13-.51.04-1.37.12-2.32.2.33-1.31.59-2.35.93-3.68-1.55.22-2.75.39-3.42.48-1.07-.52-1.77-1.14-2.5-1.17-4.04-.16-8.09-.17-12.13-.28-.16 0-.3-.59-.45-.91.03-1.7.84-2.42 2.58-2.38 3.54.08 7.09.02 10.74.02-.47-1.07-1.48-1.25-2.51-1.32-2.72-.19-5.44-.4-8.17-.48-1.53-.04-2.9-.05-3.65-1.77-.18-.4-1.14-.45-1.86-.7v1.98c-5.75 0-11.35-.02-16.96 0-5.67.02-11.34-.03-16.96-.93 2.94-.19 5.87-.39 8.81-.58 0-.28 0-.56-.01-.84-6.08-.19-12.17-.39-18.25-.58 2.06 2.52 5.21-.08 7.64 2.21-.94.17-1.54.39-2.13.37-2.6-.06-5.2-.08-7.78-.33-1.85-.18-4.13.09-4.39-2.75h-4.65c.27.63.45 1.07.84 1.98-1.54-.48-3.02-.06-3.9-1.35-1.16-1.7-2.56-1.08-4.05-.91.14.6.22.97.37 1.63-4.46-.18-8.71-.5-12.96-.48-4.29.03-8.63-.93-13.15.16.91 1.7 2.15 1.35 3.23 1.37 3.44.05 6.92-.25 10.3.21 3.17.43 6.23.41 9.33-.16.57-.1 1.3-.15 1.78.11 2.67 1.46 5.69 1.06 8.5 1.43 4.62.6 9.37-.39 14.04.68 1.1.25 2.26-.45 3.09 1.1.51.96 1.88.7 2.84.07.48-.31.87-.75 1.38-1.19 1.72 1.49 3.36 2 5.18.48.31-.26 1.03-.25 1.48-.11 2.17.67 4.28 1.95 6.57.32.09-.06.36.18.55.19 2.34.15 4.76.74 7.01.34 4.8-.85 9.54-.4 14.52-.24.21.86.4 1.65.6 2.44-.81.42-1.59 1.1-2.44 1.19-1.39.16-2.83-.09-4.24-.13-8.21-.21-16.41-.47-24.62-.56-3.19-.03-6.32-.54-9.62-.11-3.42.45-7.06-.49-10.55-1.1-2.13-.37-3.83.1-5.5 1.63-.84-1.65-2.1-1.97-3.73-1.96-3.52.02-7.04-.21-10.56-.35-5.21-.21-10.43-.51-15.64-.6-2.21-.04-4.6-.59-6.06.89-1.37-.36-2.31-.77-3.27-.82-1.85-.1-3.78.36-5.53-.05-2.54-.6-4.69-.59-6.3 1.66-.49-.27-.83-.36-1.01-.58-1.78-2.22-2.33-2.32-4.87-1.03-.51.26-1.27.55-1.69.35-1.21-.58-2.2-.06-3.25.31.01-.02.02-.03.03-.05-1.12.16-2.59.85-3.3.38-2.24-1.48-4.71-1.7-7.18-1.88-1.29-.1-2.7.09-3.9.56-1.16.45-2.07.6-3.27.1-3.75-1.55-7.78-.72-11.67-1.19-1.62-.19-3.48-.49-4.88.09-2.01.84-3.85.3-5.76.29-1.86-.01-3.79.29-5.58-.1-2.37-.52-4.48 0-6.58.77-2.19-1.94-2.27-1.94-4.75-.92-1.14.47-2.32 1.24-3.45 1.19-1.78-.08-3.54-.72-5.31-1.14-2.79-.66-5.5-.93-7.59 1.58-1.46-.79-2.83-1.53-4.23-2.28.4-.92.82-1.65 1.03-2.44.12-.44.07-1.13-.21-1.41s-.99-.36-1.41-.22c-1.47.48-2.9 1.08-4.3 1.62q-1.43-2.04-4.18-.11c-2.02-1.84-4.22-2.16-6.49-.37-.85.08-1.71.16-2.56.22-.48.03-1.19.24-1.41 0-1.13-1.2-2.57-.82-3.86-.8-1.61.02-3.22.55-4.83.54-1.69 0-3.37-.38-5.06-.59-.21-.03-.42 0-.63 0-4.41.05-8.82 0-13.23.19-9.3.39-18.62.53-27.84 2.02-.6.1-1.21.22-1.82.22-1.85.02-3.71-.12-5.55-.01-2.37.14-4.75.64-6.98-.12l.3-2.82-3.2 1.41c.42.57.8 1.09 1.25 1.71-.5.27-.76.51-1.03.53-3.34.21-6.68.36-10.02.58-2.48.17-4.97.68-7.43.54-2.01-.11-3.89.17-5.83.49-1.53.25-3.13.39-4.67.25-1.61-.14-3.03-.28-4.73.24-1.49.46-3.49 1.28-5.33-.21-.62-.5-2.61-.27-3.2.36-1.61 1.72-3.66 1.49-5.53 1.64-2.11.17-4.04.54-5.72 1.95-2.36-2.94-5.22-.46-7.83-.96-2.77-.53-5.08 1.23-7 3.8-1.33-3.03-3.4-3.11-5.87-2.37-1.38.41-2.88.43-4.31.7-.49.09-1.14.26-1.36.61-1.43 2.3-3.14 1.31-5.06.41.22.99.41 1.82.64 2.84 2.35-.21 4.47-.4 6.75-.6-.1 1.67-.99 1.51-1.96 1.63-2.6.32-5.51-.7-7.7 2.08-.44-1.26-.74-2.11-1.11-3.14.88.08 1.57.14 2.3.21 1.32-2.54-1.25-2.93-2.1-4.56-.41.84-.67 1.36-.92 1.87-.84-.1-1.63-.19-2.42-.29.64 1.23 1.29 2.47 2.1 4.04h-3.67c.62-.99.98-1.56 1.3-2.07-1.06-.92-1.97-1.72-3.05-2.66-2.42 2.22-5.49-.82-8.17.78.67 1.46 1.01 3.03 1.95 4.04 1.33 1.42 1.26 2.67.68 4.13-1.23.41-2.03.25-2.18-1.06-.15-1.33-.29-2.66-.43-4.01l-1.67-.35c.23 2.07.44 3.93.65 5.78-.18.06-.35.12-.53.19-.42-.75-.84-1.51-1.29-2.3-.52.71-1.01 1.4-1.92 2.64-.26-3.9-2.28-5.94-4.5-7.36-1.27.78-2.36 1.46-3.51 2.17.37 2.25-.34 4.08-2.02 5.86-1.07 1.12-2.12 2.68-1.17 4.72.48 1.05.17 2.46.21 3.71 0 0 .02-.02.03-.02-.22.63-.44 1.25-.6 1.72-2.46-1.34-.67-4.67-3.04-6.2-.26.41-.58.67-.57.92.12 3.02.29 6.03.43 9.05.13 2.82.44 5.65.29 8.45-.29 5.1-.95 10.15-2.19 15.15-.66 2.66-.61 5.74.05 8.4.54 2.15.08 3.56-.96 5.16-.36.56-.98 1.4-.79 1.81.74 1.63.31 3.23.36 4.87.12 4.03.6 8.05 1.11 12.05.25 1.94.46 3.73-1.18 4.85 1.96 5.49.82 10.95 1.93 16.49-2.81-.81-2.78-3.8-4.77-5.13.21 4.13.23 4.11 4.24 6.6.87.54 1.75 1.23 1.07 2.61-.72-.09-1.47-.18-2.38-.29.33 1.44.59 2.61.89 3.91-1.01.15-1.77.27-2.68.41 1.3 3.08 3.11.12 4.91.85.16.58.49 1.42.62 2.29.18 1.19.07 2.44.36 3.6.75 3.02 1.88 5.84 5 7.12 2.03-.59 4.07-1.19 6.36-1.86-2.67-.96-5.81.45-7.71-2.46.75-2.66-2.51-5.93.75-8.64q7.18 4.84 13.11 5.03h.01c.1.4.22.8.27 1.2.34 2.92.15 3.15-2.89 3.86-.5.12-.99.36-1.43.63-.21.13-.29.47-.49.82.45.23.81.41 1.17.61.4.22.79.45 1.08.61-.05 1.91-1.65 1.1-2.46 1.84l.8 1.63c.89-.8 1.74-1.55 2.64-2.36 1.85 1.48 5.11.16 6.26 2.64 1.09 2.36 4.45 1.5 5.33 4.35-1.89-.42-3.82-.34-4.96-1.24-1.29-1.03-1.96-.38-3.07-.21 1.29 1.85 1.22 2.22-.31 2.33-.87.07-1.75.01-2.63.01.47.53.92.72 1.4.86.52.16 1.14.15 1.57.44 2.41 1.62 5.12-.44 7.55.66 3.08-1.42 6.13.99 9.2.08 3.15 1.45 6.55 1.25 9.89 1.43 6.91.36 13.83.72 20.75.92 3.86.11 7.73-.13 11.6-.18.62 0 1.25.13 1.88.18 1.88.15 3.75.37 5.63.41 4.49.08 8.99-.03 13.48.13 6.91.25 13.81.7 20.72 1.02 7.03.32 14.06.44 21.08.93 7.75.55 15.46 1.6 23.22 2.13 10.89.74 21.74 1.93 32.7 1.99 10.04.06 20.06 1.08 30.1 1.55 7.52.36 15.05.6 22.58.76 4.16.09 8.33-.09 12.5-.1 1.45 0 2.91.22 4.36.24 3.47.07 6.93.06 10.4.12 6.82.13 13.64.3 20.46.41 1.76.03 3.52-.22 5.28-.18 2.58.06 5.16.4 7.74.4 9.77-.02 19.54.03 29.29-.25 11.54-.33 23.11-.24 34.58-1.89 4.95-.72 9.86-1.71 14.79-2.6.25-.05.46-.31.26-.17-.12-1.26-.2-2.2-.26-2.82 1.53-.11 2.63-.02 3.62-.31 1.06-.31 1.94 1.1 3.19-.03.6-.55 1.94-.25 2.04-1.69.03-.37.6-.7.91-1.06 2-2.3 4.58-3.02 7.54-3.11 1.61-.05 3.37-.37 3.62-2.33.78.43 1.74 1.23 2 1.04.62-.44.91-1.34 1.51-2.36.52 2.82 2.54 2.1 4.11 1.53 5.9-2.15 11.77-4.39 17.56-6.83 1.87-.79 2.9-2.47 2.67-4.83-.17-1.74.1-3.55.37-5.31.09-.59.72-1.5 1.2-1.57 3.47-.47 3.44-3.22 3.79-5.66.22-1.55-.02-3.17.23-4.71.89-5.36 1.9-10.69 1.87-16.16-.01-2.02.19-4.08 2.96-4.9-1.09-1.8-1.95-3.31-2.88-4.78-1.4-2.19-.77-3.63 1.79-4.03 1.42-.22 2.8-.53 2.05-2.82-2.25 1.07-2.82-1.24-2.79-2.17.03-1.08-.49-2.75-.28-2.91 1.51-1.11 0-2.07.1-3.02.2-1.93.72-3.83 1.07-5.75 1.01-5.46 1.97-10.93 3.05-16.38.22-1.12.08-1.79-1.16-2.26zM11.19 122.3c-.48-.19-.97-.38-1.45-.58l.36-.69 1.31.86c-.07.14-.14.27-.21.41zM10 32.96c.85-.72 1.67-1.25 2.14.83-.84-.33-1.49-.59-2.14-.83zm298.97-14.35c.01.21.03.42.04.63l-3.42.27c-.02-.24-.03-.49-.05-.73 1.14-.05 2.29-.11 3.43-.16zm-6.74-1.05c.1.4.24 1 .47 1.98h-5.92c-.04-.17-.08-.33-.11-.5 1.74-.46 3.47-.92 5.56-1.48zm-6.15-6.39c.29-.46.58-.92.87-1.39.37.5.73.99 1.29 1.75-.9.22-1.59.39-2.79.68.4-.67.51-.86.63-1.04zm-9.8 8.38c-.98-.52-1.95-1.05-3.19-1.71q2.01-.46 3.19 1.71zm-168.5-8.92c.1.15.77.06 1.09-.1 2.49-1.27 5.03-1.76 7.85-1.17 1.14.24 2.48-.14 3.64-.51 2.67-.85 5.33-.89 8.06-.45.82.13 1.75.36 2.49.12 5.51-1.76 11.16-.51 16.73-.93.8-.06 1.58-.51 2.37-.53 3.63-.09 7.26-.01 10.79 1.01.58.17 1.3.47 1.79.28 2.33-.89 4.87-.21 7.22-1.23 1.31-.57 3.01-.22 4.52-.38 1.43-.16 2.83-.54 4.26-.65 1.84-.15 3.7-.12 5.55-.18 3.01-.09 6.02-.17 9.03-.31.81-.04 1.44-.35.87-1.29.37.1.81.14 1.01.38 1.24 1.48 2.12.64 3-.38 1.42 1.34 3.14 1.85 5.06 1.78 1.71-.05 3.46-.56 5.34.29-.73 1.32-1.44 2.08-2.96 1.94-1.87-.17-3.67.65-5.7-.02-1.09-.36-2.68.77-3.57 1.06-1.81-.27-3.21-.67-4.61-.65-3 .03-5.99.36-8.99.39-3.84.04-7.69-.11-11.54-.13-1.62 0-3.25.12-4.87.2-6.95.35-13.9.66-20.85 1.09-2.77.17-5.53.67-8.3.94-1.03.1-2.09-.08-3.13-.04-2.18.08-4.35.25-6.53.35-1.85.09-3.7.21-5.55.2-3.62-.02-7.23-.14-10.85-.19-.62 0-1.23.16-1.85.2-1.98.15-2.99-.17-4.88-1.55 1.23.01 2.49-1.05 3.51.44zm-5.55-.52c.14.15.29.3.43.45-.31.49-.57 1.31-.96 1.38-.5.09-1.11-.42-1.59-1.28.7-.18 1.41-.36 2.12-.55zm-3.62 2.19h-4.87c1.52-1.33 1.69-1.35 4.87 0zm-6.51-.22c-.89 1.42-1.91 1.07-3.34.66 1.18-.98 2.08-1.34 3.34-.66zm-19.98.74c.11.21.22.42.33.62-.9.77-1.81 1.54-2.93 2.5-.6-.57-.96-.9-1.68-1.59 1.65-.59 2.97-1.06 4.28-1.53zm-14.86 3.37c-.93 1.57-2.36 1.33-4.46 1.13 1.75-1.06 2.64-2.66 4.46-1.13zm-10.22-.15c.5.97.69 1.28.81 1.62.02.06-.37.36-.43.33-.32-.19-.67-.41-.84-.72-.09-.16.18-.52.46-1.22zm4.8 59.45c-1.72 1.89-3.45 1.83-5.69-.39 2.11-.07 3.95-.78 5.69.39zm-7.42-58.53c-.47.85-.82 1.48-1.28 2.33q-.45-1.65 1.28-2.33zm-23.03 1.42c.27.55.55 1.11.82 1.66-.15.08-.31.16-.46.24-.28-.55-.55-1.11-.83-1.66.16-.08.31-.16.47-.24zm-3.06 68.79c-1.26.38-2.11.63-3.77 1.13.16-2.01.27-3.45.42-5.46l3.35 4.34zm-5.47-57.36c.13-.05.19-.32.28-.48-.43-1.84-3.45-.71-2.82-3.44.56-.05 1.41-.39 1.84-.1.77.52 1.11 1.86 2.44.88.07-.05.69.39.67.54-.23 1.44-.42 2.91-.92 4.26-.11.29-1.69.47-2.11.12-.87-.72-.39-1.43.62-1.77zm.92 89.31c-.62-1.06-1.37-1.8-1.23-2.23.33-.98 1.25-1.2 2.41-.54-.32.76-.62 1.45-1.18 2.77zm12.9 19.51c-.9-.37-2.05 1-3.17-.93 1.34.07 2.25.11 3.17.16v.77zm3.49 7.41c-.88-.15-1.77-.29-2.65-.44.08-.29.15-.58.23-.86.85.15 1.71.29 2.56.44-.05.29-.09.57-.14.86zm-1.64-7.12c.04-.19.08-.38.13-.56.49.12.98.23 1.48.35-.03.16-.07.33-.1.49-.5-.09-1-.19-1.5-.28zm6.69 7.71c.77-2.43.78-2.44 3.91-.74-1.69.32-2.76.52-3.91.74zm12.65-6.64l-1.72-.18c0-.19.02-.38.02-.57h1.73l-.03.75zm11.76 7.17c-.2 0-.53-.32-.54-.51-.01-.22.27-.62.43-.63.23 0 .46.28 1.04.67-.42.22-.68.47-.93.46zm235.05 9.87q.63-1.75 3.1.24c-1.16-.09-2.11-.17-3.1-.24zm26.87-11.5c-2.91 0-5.81-.02-8.72 0-5.75.04-11.51.17-17.26.12-3.55-.03-7.1-.3-10.65-.47-6.71-.32-13.42-.67-20.14-.97-6.08-.27-12.16-.55-18.24-.72-2.24-.06-4.49.17-6.73.26-.41.02-.84.04-1.23-.06-4.17-1.09-8.45-.77-12.69-1.03-3.43-.21-6.86-.47-10.25-.99-2.74-.42-5.37-.98-7.71 1.97-.17-1.11-.25-1.64-.37-2.44-3.03-.38-6.11-.86-9.21-1.14-8.23-.72-16.47-1.56-24.72-1.96-6.59-.32-13.22-.02-19.83-.12-3.55-.06-7.1-.48-10.65-.58-7.97-.21-15.95-.35-23.92-.47-8.8-.13-17.6-.16-26.4-.31-6.92-.12-13.84-.33-20.75-.57-5.76-.2-11.51-.54-17.27-.78-2.72-.11-5.47-.37-8.15-.06-1.75.21-3.33 1.13-5.3.89-3.61-.45-7.27-.19-10.9.16-.1.01-.22.02-.31-.02-4.1-1.43-8.45-.62-12.65-1.3-1.01-1.78-1.98-3.49-2.95-5.21 2.42 1.1 4.84 1.02 7.5.69 3.58-.44 7.27-.14 10.9.06 1.06.06 2.09.86 3.13 1.35 2.07.99 4.6.03 6.55 1.55.07.05.24.08.3.03 3.53-2.32 6.78.53 10.18.54 1.47 0 2.93.09 4.4.12 3.46.07 6.92.1 10.38.2 7.85.23 15.69.48 23.54.74.94.03 1.89.05 2.81.2 7.41 1.16 14.85.19 22.27.34 4.41.09 8.81.42 13.21.49 7.55.12 15.1-.02 22.65.2 8.91.26 17.81.69 26.71 1.21 6.7.39 13.39 1.1 20.09 1.55 5.74.38 11.5.52 17.24.89 3.95.26 7.89.74 11.83 1.12 1.26.12 2.51.23 3.77.3 4.39.24 8.79.46 13.19.67 9 .43 18 .84 27 1.28 3.87.19 7.74.53 11.61.64 3.63.11 7.27-.02 10.9.03 3.11.04 6.22.24 9.33.28 3.32.04 6.65-.03 9.97-.05 2.57-.02 5.1.29 7.61.63l-.06.73zm2.14-125.31c.98-1.22 1.94-1.06 3.61.2-1.45.15-2.24.25-3.02.3-.14 0-.29-.23-.6-.5zm5.17 125.14h-4.46v-.58c1.49.1 2.99.19 4.49.29 0 .1-.01.19-.02.29zm3.77-124.24c-.56-.14-1.09-.35-1.64-.54.09-.26.18-.52.26-.78.56.18 1.13.36 1.69.53-.11.28-.28.8-.32.79zm30.18 74.22c-1.39-.67-2.38-1.14-3.63-1.74 1.43-1.15 2.68-1.29 3.86-.46.25.17-.1 1.19-.22 2.2zm19.31 60.72c-.16-.48-.3-.88-.43-1.29-.12-.34-.24-.68-.42-1.22.54 0 .83-.07 1.07.01.46.16.9.4 1.52.68-.49.52-.84.88-1.73 1.81zm-1.22-10.85c2.28-.13 4.55-.26 6.83-.38 0 .29.02.58.03.87-2.27 1.12-4.55.5-6.86-.48zm33.43-129.9q2.34-1.6 3.74.74l-3.74-.74zm2.84 118.57c1.53-2.23 2.9-2.87 5.81-2.55-1.09 3.37-3.79 1.91-5.81 2.55zm6.66-114.03l-.42-1.34c.15-.05.31-.1.46-.15.15.44.3.89.45 1.33-.17.05-.33.11-.5.16zm4.38 13.01c-2.6-.22-1.66-2.09-1.76-3.08-.11-1.16.98-1.68 2.65-1.2l-.9 4.28zm12.17 6.22c-2.11-1.41-3.96-2.64-5.73-3.82 1.33-.8 3.08-.69 6.35.68-.22 1.09-.41 2.06-.62 3.14zm-208.12-33c1.34-.15 2.67-.47 4.01-.51 4.77-.16 9.54-.23 14.32-.34 1.52-.03 3.05-.16 4.56-.05 1.32.09 2.79.94 3.88.55 1.41-.49 2.52.66 3.75.11.28-.12.57-.24.83-.35.24-2.71.08-3.13-2.07-3.12-2.18.02-4.36.66-6.54.67-6.05.02-12.11-.15-18.16-.23-.73-.01-1.89-.23-2.12.12-.92 1.43-2.47 1.14-3.66 1.49-.4 1.31.09 1.77 1.19 1.64zm-5.03-.67c.41.2 1.22-.02 1.63-.33.28-.21.41-1.15.21-1.36-.37-.38-1.05-.63-1.6-.62-2.03.04-4.07.31-6.1.29-2.06-.02-4.12-.29-6.1-.45-.54.9-.95 1.59-1.72 2.87h11.48c.53-1.35 1.28-.86 2.21-.4zm-50.97-3.3c.32-.01.63-.35.94-.54-.04-.18-.07-.36-.11-.55-4.21 0-8.42-.05-12.63.02-2.49.04-4.97.28-7.46.44-.05 0-.1.16-.12.26-.02.09 0 .2 0 .5 6.46.56 12.92.15 19.38-.13zm123.95 2.17c3.63 1.33 7.26 1.54 11.08-.23-.86-.48-1.8-.67-2.09-1.22-.83-1.52-.73-1.57-2.84-1.3.47.37.77.58 1.05.82s.54.49 1.33 1.21h-8.54v.72zM253.74.49s-.02-.03-.02-.05v.05h.02zm.57.9c1.14.11 2.3.05 3.44.08 3.93.12 7.85-.99 11.8-.02 1 .25 2.21.42 3.73-.96h-19.54c.19.33.36.88.57.9zm23.98 2.88c.94.31 1.84.61 2.32.77l4.32-1.71c-3.03-1.67-5.86-.87-9.13-.54.69 1.28 1.2 2.21 2.02 3.73.22-1.08.31-1.51.46-2.25zM253.71.45s-.05.04-.08.06h.06c.01-.02.02-.06.02-.06zm-11.27.97c3.33-.02 6.67-.03 9.99-.14.41-.01.8-.48 1.2-.77-3.87.04-7.73.07-11.92.11.47.54.6.81.72.81zm215.47 66.47c.25 0 .5 0 .74.01.55-2.42 1.1-4.85 1.64-7.27-.21-.05-.43-.1-.64-.14-.58 2.47-1.16 4.93-1.75 7.4zM209.04 1.06c-1.87.18-3.78-1.14-5.56.23 1.88.03 3.76 1.68 5.56-.23zM68.81 7.69c-1.59.42-2.76.72-3.93 1.03q2.43 1.22 3.93-1.03zM308.9 3.65h-4.92v.98c1.43-.31 2.91.79 4.93-.98zm147.36 72.67c.64-.2.88-.23.9-.29.23-1.24.44-2.48.65-3.72-.25-.04-.49-.09-.74-.13-.25 1.29-.51 2.58-.81 4.15zM38.97 11.27c-.66-.06-1.6-.15-2.59-.24.27 1.36.51 2.55.75 3.74.6-1.16 1.21-2.31 1.83-3.51zm290.37-4.29c-1.51-.02-3.03-.02-4.54-.02 0 .06 0 .12-.01.18 1.58.17 3.15.34 4.88.53-.19-.41-.26-.69-.33-.69zm-211.83-1.9c-1.56-.53-2.67-.88-4.06.4 1.5.36 2.56 1.2 4.06-.4zM22.05 146.39c-1.34-.42-2.42-.76-3.81-1.19.79 2.58 2.02 2.36 3.81 1.19zM58.14 10.2c-.03-.29-.07-.58-.1-.87-1.09.09-2.18.17-3.28.26.04.36.09.72.13 1.08 1.08-.16 2.17-.31 3.25-.47zm141.13-8.57l-.15-.78c-1.01.17-2.01.33-3.02.5l.12.75c1.01-.15 2.03-.31 3.05-.46zm93.21 1.46h-3.58c1.58 1.58 2.56.32 3.58 0zM394.8 4.92c-.02-.16-.05-.32-.07-.48h-1.9c-.04.12-.07.25-.11.37.3.13.6.35.91.36.39 0 .78-.16 1.17-.24zm65.75 52.03l-.38.06v1.6c.21-.02.43-.04.64-.05-.09-.54-.18-1.07-.26-1.61zM281.64.72c-.94-.3-1.58-.51-2.23-.72.33 1.27.89 1.8 2.23.72zm58.39 6.89l.06.64c.72-.18 1.43-.36 2.57-.64h-2.63zM162.41 2.37c-.03-.18-.07-.35-.1-.53-.55.12-1.1.23-1.65.35.03.16.06.32.09.47.56-.1 1.11-.19 1.67-.29zm294.33 77.55c.11-.26.32-.53.31-.79-.01-.21-.3-.4-.58-.74-.17.49-.38.78-.32 1.02.05.21.39.35.6.52zM347.79 2.56c-.6-.07-1.2-.15-1.8-.22-.01.09-.02.17-.04.26.56.15 1.12.3 1.69.45l.15-.48zm51.67 2.16h-2.02c0 .12-.01.23-.02.35.64.08 1.29.17 1.93.25.03-.2.07-.4.1-.6zM218.05.94c-.5-.08-1-.16-1.49-.24-.03.18-.07.35-.1.53.52.1 1.03.21 1.55.32.01-.2.03-.4.04-.6zm-63.09.92s-.22-.25-.39-.43c-.22.16-.45.32-.68.49l.55.55c.18-.2.38-.38.52-.6zm300.38 110.4c.13-.02.25-.03.38-.05v-1.54c-.24.03-.47.05-.71.08l.33 1.51zM123.92 4.52c-.08-.18-.16-.35-.24-.53-.48.21-.95.42-1.43.64.08.18.16.36.25.54.47-.22.95-.43 1.42-.65zm-15.32.63c-.03-.1-.07-.2-.1-.29-.49.16-.99.31-1.48.47.05.13.09.26.14.39l1.44-.57zm191.99-1.91h-2.06l.06.45c.5-.11 1-.23 2-.45zm110.18 1.79c-.06-.17-.12-.34-.17-.51l-1.23.39c.07.18.14.37.2.55.4-.15.8-.29 1.2-.44z" fill="#43c0a3" data-name="Capa 1"/></svg>