<svg data-name="Capa 2" xmlns="http://www.w3.org/2000/svg" viewBox="0 0 490.29 108.13"><path d="M486.36 66.8c-1.54-.26-3.11-.43-4.67-.53-1.31-.08-2.62-.02-3.84-.02-.5-1.95 1.5-1.83 1.6-2.56.35-2.76 2.32-2.11 4-2.23 2.28-.16 4.56-.36 6.84-.55-.43-.89-.95-1.34-1.56-1.54-1.09-.35-2.23-.62-3.36-.8-1.43-.23-2.23-.95-2.31-2.54 1.05-.54 2.07-1.07 3.1-1.6-1.81-.97-3.43-1.84-5.62-3.01 3.22-.39 4.94-2.95 7.79-2.22-1.02-.89-2.22-1.38-2.9-2.26-.51-.66-.69-1.64-1.71-1.41-.73.17-1.37.76-2.06 1.17-1.49-.5-1.83-1.68-1.82-3.08 1.89-.43 4.03 1.3 5.58-.76-.18-3.69-2.53-4.8-5.63-5.11-3.11-.31-6.21-.72-9.32-1.01-.89-.08-2.03-.18-2.64.28-.52.39-.43 1.58-.63 2.51-.74-.1-1.42-.19-2.3-.31.31-1.06.56-1.91.81-2.76q-2.49-.79-3.77.08c-.92.07-1.85.15-2.65.21-.13-1.84-.23-3.21-.35-4.91 2.69.36 5.47.69 8.23 1.11 2.7.42 5.37.99 8.07 1.39 1.66.24 3.34.27 4.18-1.67-2.25-.77-4.37-1.51-6.5-2.24-2.06-.71-4.08-1.64-6.2-2.07-2.19-.44-4.44-.64-6.73-.48-1.18.08-2.42-.31-3.59-.63-1.28-.35-2.52-1.25-3.77-1.26-3.09-.02-3.09.13-5.87-2.45 7.73 1.35 15.13 2.64 22.57 3.94.32-1.11.53-1.86.78-2.71-.89-.31-1.56-.63-2.26-.77-6.55-1.34-13.12-2.63-19.67-3.98-8.64-1.77-17.26-3.61-25.9-5.36-9.36-1.9-18.68-4.04-28.11-5.53-13.38-2.12-26.8-4.04-40.26-5.48-11.47-1.23-23.02-1.83-34.56-2.39C306.58.64 293.79.26 281 .04c-8.9-.15-17.81.07-26.72.25-7.64.16-15.28.46-22.91.77-8.29.34-16.57 1.09-24.86 1.06-8.92-.03-17.68 1.64-26.58 1.84-7.34.17-14.66 1.21-21.99 1.93-1.86.18-3.69.72-5.55.93-1.87.21-3.78.12-5.65.34-5.71.67-11.4 1.44-17.11 2.13-7.92.96-15.87 1.76-23.77 2.85-8.6 1.19-17.16 2.69-25.79 3.7-3.74.44-7.49.9-11.22 1.46-4.23.63-8.44 1.44-12.67 2.08-6.95 1.06-13.96 1.81-20.85 3.16-4.39.86-8.55 2.85-12.92 3.84-3.41.78-4.61 3.55-6.15 5.89-.55.84-.92 1.9-1.83 2.17-1.93.57-1.58 3.56-3.95 3.52 0 0 0 .17-.01.26.31.36.62.72 1.03 1.21-1.16 1.01-2.35.92-3.45.81-3.01-.32-5.56.48-7.6 2.89.54 1.64 1.45 2.38 3.43 2.33 2.67-.06 5.35.45 8.03.74.07 0 .1.36.32 1.21C7.98 47.12 3.64 46.37 0 49.6c-.14 3.13 2.1 5.08 4.14 7.11.86.86 1.81 1.62 2.73 2.42.55.48 1.06 1.18 1.7 1.35 2.38.64 3.47 2.03 2.9 4.1 3.1 1.18 5.94 2.19 8.72 3.35 1.81.76 3.36 1.92 5.5 2.11 1.39.12 3.31.88 3 3.38-1.76 0-3.68.28-4.6-1.34-1.06-1.87-3.17-1.45-4.44-2.65-1.39-1.31-2.89-.79-4.49-.11.72.26 1.53.33 2.02.76 2.22 1.95 4.5 3.66 7.62 3.82.59.03 1.15.49 1.74.72 1.45.58 2.91 1.14 4.36 1.73.18.07.33.25.58.45v1.94c.21.17.35.38.54.43 5.87 1.53 11.72 3.12 17.62 4.52 3.96.94 7.98 1.62 11.97 2.41 1.62.32 3.23.65 4.85.92 2.14.36 4.3.63 6.45.99 1.03.17 2.03.6 3.06.69 4.64.41 9.12 1.89 13.8 2 .49.01.99.33 1.46.55 1.53.72 3 1.32 4.81.8.81-.23 2.11-.09 2.66.43 1.37 1.31 2.99 1.33 4.63 1.47 1.23.11 2.59-.19 3.69.23 5.59 2.11 11.55 1.88 17.29 2.94 5.26.97 10.55 1.75 15.86 2.42 2.56.32 5.17.22 7.76.21 1.02 0 2.03-.56 2.62.92.15.38 1.34.68 1.89.5.72-.24 1-1.65 2.22-.6.52.45 1.45.4 2.04.81 1.51 1.04 2.82.98 4.06-.57.45.42.76.93 1.19 1.09 1.04.38 2.14.6 3.22.88.74-2.26 1.99-.38 2.99-.5 1.84-.23 3.11 1.05 4.83 1.04 2.35 0 4.71.56 7.07.79 8.04.78 16.08 1.59 24.14 2.24 3.12.25 6.28.03 9.41.16 5.11.21 10.22.59 15.33.78 3.86.14 7.73.02 11.6.13 8.17.22 16.34.69 24.5.72 12.28.04 24.55-.19 36.83-.36 9.66-.13 19.32-.3 28.98-.54 10.39-.25 20.78-.55 31.16-.91 10.18-.36 20.36-.82 30.54-1.26 2.8-.12 5.59-.29 8.59-.45-.74-1.25-.66-2.05.46-2.24 2.03-.34 4.08-.81 6.11-.74 4.31.14 8.59-.75 12.9-.15.19.03.41-.1.61-.13 2.15-.24 4.3-.51 6.46-.68 1.32-.1 2.65 0 3.98-.06.73-.03 1.45-.22 2.18-.24 2.29-.05 4.59-.01 6.88-.1 1.25-.05 2.4-.03 3.67 1.32-2.4.4-4.37.73-6.35 1.07l.06.33c6.19-.45 12.39-.89 18.58-1.34 0-.15 0-.29.01-.44-.99-.19-1.98-.37-3.75-.7 1.22-.64 1.73-1.14 2.22-1.12 4.01.12 7.68-2.68 11.82-1.35.28.09.72.11.92-.04.52-.4.96-.92 1.43-1.4-.51-.45-1.05-1.3-1.51-1.26-1.62.13-3.21.57-4.92.91-1.76-.14-3.7-.35-5.66-.43-1.99-.08-2.18-.3-1.81-2.64 1.62-.43 3.38-1.5 4.77-1.14 2.66.69 5.18.22 7.75.08 3.28-.17 6.56-.52 9.84-.8-3.23-.3-6.24-.61-8.34-3.43-.14-1.84 2.36-.75 2.47-1.87-1.17-1.32-2.17-2.44-3.1-3.48 1.28-2.59 3.67-2.32 5.46-2.86.78-1.1 1.49-2.08 2.24-3.14 2.77 1.31 4.26-.27 5.66-2.12-1.16-.88-3.08-.15-3.93-2.37 1.2-.08 2.18-.1 3.15-.24.67-.1 1.73-.22 1.88-.61.55-1.43 1.65-1.35 2.8-1.53.58-.09 1.36-.61 1.56-1.13.38-.99-.41-1.6-1.3-1.75zm-3.54-25.43c-.27.34-.53.69-.8 1.03-.14-.43-.28-.85-.42-1.28.41.08.82.16 1.22.25zM16.14 36.33c.33.2.5.29.67.39-.2.31-.39.63-.62.91-.03.04-.49-.21-.48-.24.12-.36.28-.7.44-1.07zm.19 2.29c-.74 1.43-1.37 1.49-2.82.36 1.25-.16 1.85-.23 2.82-.36zm-1.95 24.7c.8.29 1.6.59 2.66.97q-1.51.3-2.66-.97zm7.49 3.33c-1.09-.43-2.18-.86-3.26-1.29 1.48-.49 2.87-.77 3.64.65-.12.21-.25.43-.37.64zm2.06-30.58c-1.64.03-2.88-.57-3.7-2.52.65-.15 1.31-.53 1.8-.37 1.03.35 2.17.79 2.88 1.55.55.59-.01 1.32-.98 1.34zm6.6 37.7c-.36-.04-.87-.57-.9-.93-.03-.33.58-1.07.71-1.03.49.16.9.57 1.57 1.05-.64.45-1.04.95-1.37.91zM64.5 30.82c-1.78-.36-4.32.94-4.87-2.42 2.62-.9 3.56 1.11 4.87 2.42zM49.05 73.81c-2.51 1.5-4.65-.21-6.79-.9l6.79.9zM32.21 78.1c.07-.21.13-.41.2-.62.82.18 1.87-.21 2.19 1.16l-2.39-.54zm67 11.59c-9.64-1.44-19.27-2.88-28.9-4.37-7.03-1.09-14.08-2.12-21.06-3.49-3.03-.6-5.98-1.14-9.08-1.24-1.8-.06-3.56-1.19-5.34-1.88 1.92-.22 4.05-1 5.63-.37 1.89.76 3.79 1.03 5.68 1.4 5.93 1.15 11.9 2.11 17.85 3.17 5.64 1 11.28 2.03 16.92 3.05.2.04.42.18.6.15 4.35-.81 8.35 1.04 12.5 1.72 2.96.48 6.12.1 9.25 2.19-1.65-.13-2.86-.15-4.05-.32zm7.28.72c4.7-.27 9.29.79 13.92 1.19 4.89.43 9.76 1.02 14.63 1.61 4.72.57 9.44 1.25 14.16 1.84 4.85.6 9.71 1.15 14.57 1.73 4.75.57 9.49 1.15 14.23 1.73-24.13-.16-47.7-5.17-71.51-8.1zm197.23 15.47l7.63-.57c-2.42 1.95-5.06.78-7.63.57zm11.23-98.95h3.19v.23h-3.02l-.17-.23zm2.17 99.57l.03-.87h1.91c.02.22.03.43.05.65-.66.07-1.33.15-1.99.22zm3.31-1.24h4q-1.38 1.1-4 0zm3.58-97.52v-.29h3.09v.29H324zm12.19 98.1c-.53-.04-1.06-.09-1.58-.13.04-.21.08-.43.11-.64.51.08 1.02.16 1.53.23l-.06.54zm8.62-.24c-.29.12-.7-.07-1.06-.12l-.06-.43c.58-.22 1.17-.44 1.75-.66.09.13.18.25.27.38-.3.29-.55.69-.9.84zm6.93-.81c2.4-.53 4.8-1.68 7.24.13-2.41.76-4.87 1.49-7.24-.13zm11.78.16l-.12-.51c.46-.35 1.16-1.1 1.34-.99 1.55.92 3.75-.62 5.36 1.5h-6.59zm11.69-.14c-.04-.23-.07-.47-.11-.7.73-.11 1.47-.21 2.2-.32.03.26.07.52.1.78-.73.08-1.46.16-2.19.23zm7.93-91.84c-2.74-.31-5.48-.62-8.23-.94.03-.22.05-.45.08-.67l8.2 1.2c-.02.14-.03.27-.05.41zm4.01 90.99h-1.77c.03-.29.04-.83.1-.83.55-.06 1.11-.02 1.67-.01v.85zm2.72.01c2.76-1.84 5.39-1.87 7.77 0h-7.77zM396 16q.64-1.82 2.83-.97c-1.1.38-1.83.63-2.83.97zm4.69 82.82a9.57 9.57 0 00-.26-.56c.51-.23 1.03-.45 1.54-.68.08.17.15.34.23.51-.51.24-1.01.49-1.52.73zm7.68-82.26c-1.32-.17-2.64-.33-3.97-.5l.06-.58c1.33.07 2.65.14 3.98.22-.02.29-.05.57-.07.86zm1.79 7.64c.02-.2.04-.41.05-.61.74.07 1.48.15 2.21.22.02.17.03.35.05.52-.77-.04-1.54-.09-2.31-.13zm14.32-3.65c-2.36-.77-4.74-1.5-7.15-2.09-.47-.12-1.11.43-1.6.64-1.35-.77-2.5-1.41-3.45-1.95 2.07-.43 10.82 1.17 14.73 2.86-.83.69-1.54.86-2.53.54zm12.03 2.34c-1.55-1.05-3.2-1.28-5.04-1-1.39.22-1.4.1-2.17-1.88 4.23.88 8.37 1.75 12.77 2.67-2.05 1.14-3.81 1.4-5.57.21zm10.33 78.1c2.67-1.29 2.75-1.3 5.77-.43-2.09 1.72-3.73.76-5.77.43zm9.29-4.06c-1.5 1.71-3 .65-4.53-.15 1.47-.7 2.97-.28 4.53.15zm5.82-60.33c.23.69.45 1.38.68 2.07-1.29-.39-1.3-.4-.68-2.07zm-.45 43.64l1.63-.11c-.45 1.44-.94 1.07-1.63.11zm7.89 7.66l-4.36.3c1.52-.99 1.81-.99 4.36-.3zm-42.8 15.06l-11.05.66c3.7.1 7.4.26 11.05-.66zm-19.16.66l.06.64 4.75-.48-.03-.44-4.77.27zM5.87 61.69c.56.36 1.09.76 1.68 1.05.12.06.43-.28.96-.66-.9-.43-1.56-.74-2.21-1.06l-.43.67zm481.1-20c1.08.06 1.37-.57 1.05-1.95-.68.42-1.2.74-1.73 1.07.22.31.43.87.67.88zM8.26 38.6c-.07-.27-.14-.54-.21-.82-.82.27-1.65.54-2.47.82.05.2.11.4.16.6.84-.2 1.68-.4 2.53-.6zm463.46 57.56c.3.26.59.52.89.79.3-.45.61-.89.91-1.34-.12-.09-.24-.19-.35-.28l-1.44.84zM431.67 103l2.66.2c-.03-.19-.05-.37-.08-.56-.63.09-1.27.18-2.58.36z" fill="#43c0a3" data-name="Capa 1"/></svg>