<svg data-name="Capa 2" xmlns="http://www.w3.org/2000/svg" viewBox="0 0 467.89 153.23"><path d="M465.08 61.34c.63-.39 1.46-.9 2.81-1.74-1.46-.32-2.35-.51-3.31-.72 0-1.71.03-3.45 0-5.18-.05-2.1 2.44-2.71 2.67-4.67-1.14-2.1-2.92-3.41-5.23-3.82-1.06-2.9-.84-5.49 1-7.86-1.06-1.88-1.88-3.84-3.17-5.42-.75-.92-2.25-1.69-3.43-1.7-1.59-.01-2.4-.82-3.81-1.85 1.58-.16 2.71-.27 3.84-.38l-.06-.7c-2.35.87-4.77-1.47-7.26.74-2.59-1.37-5.25-2.77-7.86-4.14.13-1.75 1.1-2.12 2.4-2.04 2.81.17 5.63.35 8.44.53-4.21-1.05-8.45-1.95-12.73-2.52-3.21-.42-6.48-.46-9.73-.57-1.49-.05-2.6-.45-3.37-1.85-.3-.55-1.06-1.06-1.68-1.18-1.84-.36-3.71-.57-5.58-.75-2.89-.27-5.79-.46-8.88-.7.58-.64 1.25-1.09.07-1.21-1.2-.12-2.41-.25-3.62-.32-4.68-.29-9.37-.57-14.05-.85-1.04-.06-2.11 0-3.13-.2-4.03-.83-8.03-.97-12.04.17-.59.17-1.25.11-1.88.1-5.63-.17-11.25-.34-16.88-.55-2.52-.09-5.03-.3-7.54-.43-2.52-.13-5.05-.14-7.56-.39-2.36-.23-4.83.61-7.08-.79-.31-.19-.83-.03-1.25-.05-6.16-.39-12.32-.76-18.47-1.2-6.28-.45-12.55-1.13-18.84-1.46-6.43-.33-12.86-.72-19.27-1.28-4.19-.36-8.4-.4-12.6-.67-5.82-.37-11.65.07-17.47-.52-3.96-.4-7.98-.26-11.97-.4-10.37-.36-20.74-.75-31.11-1.11-2.73-.09-5.46-.1-8.19-.17-7.75-.21-15.51-.71-23.25-.6-14.29.21-28.57.91-42.86 1.16-13.56.24-27.04 1.4-40.5 2.92-3.01.34-6.02.57-9.34.89.68.63 1.08 1.01 1.57 1.47-2.34 2.25-4.4.38-6.05-.07-1.44.52-2.47.97-3.54 1.26-3.23.85-6.48 1.27-9.85 1.5-5.38.37-10.71 1.58-16.05 2.51-.58.1-1.07.66-1.61 1.01l.18.64c1.93-.13 4.03.17 5.74-.51 2.04-.81 4.1-1.28 6.1-1 5.85.82 11.29-1.88 17.03-1.68 3.86-2.2 7.92-.05 11.86-.55.07 0 .18.3.36.62-.92.64-1.75 1.16-3.05.88-1.06-.23-2.58-.43-3.26.13-1.16.94-2.48.41-3.67.98-1.04.5-2.49.7-3.78-.05-.32-.18-.98.21-1.48.35-.6.17-1.21.56-1.78.5-5.31-.61-10.41.64-15.5 1.8-1.66.38-3.22.68-4.5-.62-2.77 1.84-5.77 2.03-8.73 2.31-2.06.2-4.17.01-6.2.35-8.3 1.37-16.58 2.87-24.87 4.33l.09.54c4.42-.44 8.84-.87 13.26-1.31-1.46.89-2.99 1.21-4.49 1.64-2.1.61-4.15 1.36-6.25 1.97-.8.23-1.67.19-2.49.37-.71.16-1.48.34-2.05.75-.41.3-.43 1.11-.82 1.48-.55.51-1.28.82-1.93 1.21l.12.51c2.79.27 5.59.53 8.37.8-.23 2.68-2.7 2.11-4.1 3.21.12.66.24 1.35.36 1.99-1.15 1.69-2.96 2-4.69 2.21-1.73.21-3.51.05-5.6.05 1.18 1.01 1.81 2.14 3.35 1.96 1.41-.16.7 1.1.94 1.67q3.83.57 4.49 2.51c-1.16-.28-2.14-.71-3.12-.7-.96.01-1.92.47-2.89.73-.02.2-.03.41-.05.61 2.38.66 4.77 1.31 7.17 1.98.04-.54.07-1.04.1-1.54 2.39-.25 2 1.83 3.07 2.89-2.98 1.58-6.39-.72-9.28 1.65 6.4 2.42 12.76 3.72 19.15 4.82 1.88.32 3.67.46 4.52 2.52-3.07 1.64-4.23 1.57-5.1-.14-1.02.18-2.03.37-3.05.55-.63-.83-1.19-1.57-1.51-2-1.63.29-3.06.55-4.83.86 2.83 1.2 4.43 4.26 7.9 3.63.46-.08 1.08.16 1.48.45 2.11 1.51 4.59 1.83 7.02 2.19 4.85.72 9.72 1.37 14.59 1.99 1.95.25 3.94.26 5.88.56 2.71.42 5.38 1.05 8.08 1.49 2.44.4 4.91.67 7.36 1.02.13.02.24.25.43.46-.78.28-1.5.53-2.34.83.38.4.54.69.65.67 1.46-.21 2.96.43 4.4-.82 1.6-1.39 2.85 1.05 4.56.94 2.97-.2 5.97-.06 8.96-.06-.77.38-1.57.43-2.36.55-6.52.96-13.04 1.92-19.55 2.93-.33.05-.59.6-1.08 1.14 2.91.69 5.47-1.3 8.32.09-2.59.53-4.82.99-7.26 1.49 2.01 2.37 4.22 2.31 6.59 2.33 2.89.03 5.77.66 8.64 1.08.21.03.36.46.54.71-3.55 1.72-7.39 1.9-11.14 2.56-3.85.67-7.85-.2-11.63 1.28 1.82.44 3.77.91 5.4.39 3.09-.98 6.17-.86 9.28-.75.52.02 1.02.75 1.53 1.15-.52.42-1 1.13-1.58 1.22-2.15.34-4.32.51-6.49.69-.83.07-1.73.17-2.51-.05-2.42-.7-4.47.37-6.9 1.12.65 1.24.83 2.47 2.52 2.59 1.26.09 2.09.97 2.29 2.25.28 1.76-1.39 1.76-2.51 2.42l2.12 4.75c1.49.33 2.82.63 4.32.97-.69 1.56-1.63 1.46-2.58 1.44-.88-.02-1.76.1-2.72.16 1.36 3.27 3.94 3.72 6.85 3.54-1.5 2.8-.41 5.3 2.27 5.59 1.1.12 2.25-.12 3.38-.22.62-.06 1.32-.39 1.84-.21 3.16 1.12 6.42.61 9.64.79.92.05 1.82.3 2.74.46l-.06.63c-.95.22-1.9.45-2.85.67 5.42.84 10.79 1.73 16.44 1.18-.33-1.13-.53-1.83-.77-2.68 2.1.03 4-.58 5.92.83-.85.5-1.52.9-2.2 1.29 4.53 1.14 8.88 1.63 13.32-.35-1.18-.49-2.36-.97-3.54-1.46.04-.12.08-.23.12-.35h6.04c-.52.95-.88 1.6-1.32 2.41.99.38 1.77.93 2.54.93 5.28.02 10.56-.12 15.85-.13 6.07-.01 12.14.06 18.22.09.06 1.21-.85 1.27-1.68 1.31-4.19.19-8.38.37-12.57.51-5.61.19-11.25-.87-16.82.52-.4.1-.84.04-1.26.03-3.14-.07-6.28-.21-9.42-.21-3.33 0-6.66.23-9.99.19-3.77-.05-7.54-.3-11.32-.46-4.29-.18-8.58-.33-12.87-.53-1.43-.07-2.68.14-3.69 1.77 1.2.19 2.28.38 3.35.53.61.09 1.51-.09 1.76.25.51.66.65 1.6.89 2.25 1.99 1.45 3.14-.6 4.35-1.3 1.93-1.11 2.1-1.52 4.51-.39-.27.74-.53 1.48-.89 2.47 3.8.18 7.47.17 11.09.59 2.76.33 4.89-.24 6.32-2.65 1.8.26 2.84 1.02 2.53 2.96h21.09l.76-3.25c.65 1.5 1.05 2.4 1.41 3.23h5.2c.56-1.93 1.71-1.09 2.59-.43 1.59 1.19 2.84.77 3.68-.43 1.28.35 2.25.65 3.24.88 6.38 1.47 12.84.02 19.26.53 2.67.21 5.4-.36 8.1-.58.3-.02.61-.1.9-.06 1.95.22 3.89.49 5.84.7 1.51.16 2.68-.31 3.27-1.84.07-.18.47-.24.82-.4.18.78.33 1.43.49 2.14 4.78 0 9.4-.06 14.01.01 14.92.22 29.85.48 44.77.72 6.62.11 13.24.16 19.86.32 5.89.15 11.77.48 17.65.59 1.06.02 2.13-.6 3.25-.94.7 1.45 2.25 1.29 3.68 1.38 6.47.42 12.96.73 19.42 1.27 8.79.74 17.56 1.67 26.34 2.49 1.15.11 2.64.54 3.39 0 1.61-1.15 2.75-1.06 4.05.25.27.27.73.42 1.12.47 4.26.58 8.52 1.09 12.77 1.7 4.75.68 9.5 1.34 14.21 2.22 4.83.89 9.62 1.99 14.41 3.07 4.9 1.11 9.83 2.12 14.63 3.57 3.09.93 5.98 2.53 8.93 3.91 1.98.92 3.86 2.1 6.04.43.3-.23 1.04-.09 1.49.09 2.15.83 4.33 1.6 6.38 2.64 2.49 1.27 5.09 1.53 7.16 1.43 1.09.72 1.7 1.33 2.42 1.54 1.19.34 2.47.32 3.68.6 3.74.88 4.72.4 5.93-3.11.2-.58.29-1.21.44-1.85-1.29-1.42-2.53-2.79-3.86-4.24.06-.94.13-2.01.22-3.27 2.4.89 4.5 1.82 6.69 2.43 4.08 1.15 5.12.67 7.57-3.07-.56-1.59-1.24-3.24-1.72-4.95-1.23-4.35.1-6.16 4.57-6.38.35-.02.7 0 1.21 0 0-1.91-.22-3.61.06-5.23.26-1.47-1.66-3.14.53-4.66.49.92.89 1.68 1.32 2.49q1.01-1.03 3.86-.98c-.1-3.01-.34-6.3 3.7-6.94-.69-1.25-1.26-2.3-2.08-3.81 1.53-.31 2.57-.52 3.2-.65.48-1.46.81-2.83 1.37-4.09.57-1.27 1.23-2.44.46-3.86-2.4-4.43-2.62-9.17-1.9-14.03.52-3.51 1.2-7.01 1.6-10.54.22-1.95-.18-3.96.98-5.76.17-.26.09-.82-.08-1.15-.94-1.87-.57-3.5.55-5.2.4-.61.17-1.65.24-2.68zM30.49 57.3c.07.18.13.35.26.69-.29.17-.61.36-.93.55-.1-.23-.34-.63-.29-.67.28-.24.63-.38.96-.56zm31.37 6.86c-11.59-.34-22.75-2.06-33.9-4.29.94-.07 1.99.1 2.79-.27.71-.32 1.14-1.25 1.68-1.9 2.55 1.01 5.27 2.1 8.23 3.28.71-2.92 3.06-3.09 4.83-3.35 1.92 1.44 3.61 2.7 5.44 4.08 1.25-1.41 2.37-3.32 4.29-1 .18.22 1.05.12 1.43-.11 2.11-1.24 3.76-.45 5.45 1.24-.08.68-.17 1.53-.26 2.31zm4.1.59c-.53 0-1.05-.86-1.72-1.44l3.75-1.6c.97 2.41 3.04 1.88 4.95 1.49 1.01-.21 1.92-.74 3.1.4-3.42 1.44-6.78 1.2-10.08 1.15zM120.02 114c-.01-.16-.03-.33-.04-.49h2c0 .11.02.23.03.34l-1.99.15zm-23.92 8.19c-.05-.19-.11-.39-.16-.59.46-.12.91-.25 1.37-.33.04 0 .14.34.21.52-.47.13-.95.27-1.42.4zm11.37 1.04l-1.02-1.2c.19-.12.38-.25.58-.37.26.44.51.88.77 1.33l-.33.24zm12.96-.24c-.42-.28-.84-.57-1.27-.85l.27-.45c.45.18.9.36 1.36.54l-.36.75zm59.87-10.74c.7.07 1.41.15 2.11.22-.04.23-.07.46-.11.69-.68-.14-1.36-.27-2.05-.41.01-.17.03-.33.04-.5zM160.95 8.76h2.81v.34h-2.81v-.34zm-25.47 104.08c.69.1 1.39.21 2.02.3.06 1.13-.22 1.13-2.02-.3zm9.35-103.59c.57.17 1.14.34 1.7.51-.06.2-.12.4-.19.61-.56-.18-1.13-.36-1.69-.55.06-.19.12-.38.17-.57zm1.34 104c0-.07-.01-.14-.02-.21h3.41c0 .07 0 .14.01.21h-3.41zm1.47-104.29h4.96c-1.77 1.64-3.34 1.33-4.96 0zm210.77 118.98c-3.84-.57-7.65-1.31-11.5-1.82-3.62-.48-7.28-.72-10.92-1.1-6.37-.66-12.73-1.37-19.1-1.99-7.32-.72-14.64-1.44-21.98-2.02-8.04-.63-16.1-1.15-24.15-1.61-4.07-.23-8.15-.18-12.22-.34-2.62-.11-5.23-.51-7.84-.54-6.46-.06-12.93 0-19.4.04-7.53.04-15.02-.66-22.51-1.23-.21-.02-.44-.16-.62-.1-3.25.99-6.61.35-9.91.69-.88.09-1.78-.03-2.67-.04-1.46-.01-3.02-.34-4.36.05-2.83.83-5.61.48-8.43.35-2.07-.1-4.15.07-6.23.04-1.65-.03-3.29-.2-4.94-.29-.61-.03-1.22-.02-1.83-.01-2.7.05-5.4.17-8.11.15-2.59-.02-5.22-.47-7.77-.16-1.79.22-3-.34-4.28-1.26 6.87-.26 13.75-.67 20.62-.76 10.79-.14 21.6-.42 32.37.04 8.71.38 17.37-.22 26.05-.2 3.56.01 7.11.36 10.67.52.94.04 1.88-.03 2.82-.02 2.6.02 5.19.13 7.79.07 2.26-.05 4.5-.23 6.77.13 1.61.25 3.3 0 4.96.04 1.87.04 3.74.14 5.61.22 3.32.14 6.65.49 9.97.37 2.17-.08 4.37 1.09 6.55-.14.42-.24 1.23.03 1.78.26 2.35.95 4.77 1.27 7.28 1.12.58-.03 1.18.18 1.77.27.5.08 1.05.33 1.5.2q5-1.43 9.37.83c.62.32 1.39.35 2.09.49 1.08.23 2.16.59 3.24.62 2.12.07 4.2.93 6.36-.77 1.16-.91 3.22-1.4 5-.46 1.64.87 3.29 1.7 5.28 1.36.45-.08 1.02.22 1.47.45 2.42 1.23 2.42 1.24 4.36-.8 1.71.55 3.92-.37 5.28 1.85.2.33 1.75-.16 2.59-.26 1.6.94 3.28 1.98 5.02 2.88.36.19 1.08.04 1.44-.21 1.46-1.03 3.01-.84 4.54-.38 2.37.72 4.6 1.89 7.22 1.71.64-.04 1.34.84 1.92 1.78-.98 0-1.97.12-2.93-.02zm3.88-.97q2.97-.02 3.42 2.11c-1.87.12-3.02-.36-3.42-2.11zm10.5 2.92c-.58-.07-1.16-.15-1.74-.22 0-.18.01-.37.02-.55h1.79c-.02.26-.04.51-.07.77zM439.8 25.18c-.38-.02-.67-.01-.95-.06-1.93-.33-3.32-2.65-5.73-1.48-.3.14-1.2-.97-1.83-1.5.09-.23.18-.46.26-.69 2.86 1.03 5.89-.45 8.99.85-.28 1.07-.5 1.94-.75 2.88zM44.3 15.85c-1.83-.68-3.67-.97-5.6-.61-5.46.99-10.92 1.95-16.38 2.95-1.5.28-2.98.68-4.47 1.02.06.36.11.72.16 1.09 8.67-2 17.66-1.71 26.29-4.45zm278.38-8.98c-1.72-1.9-4.37-1.99-6.51-.17 2.24.88 4.28 1.21 6.51.17zm4.17.85c3.91.39 7.27.73 10.63 1.07-2.07-1.63-7.63-2.01-10.63-1.07zm-14.18-1.53c-1.11-1.52-2.51-.75-3.92-.64-1.29.09-2.62-.36-3.93-.58 1.87 1.44 5.6 1.87 7.86 1.22zm-12.24-2.4c-1.13.04-1.49.74-1.8 1.54 1.56.26 2.89.48 4.67.78-.62-1.55-1.37-2.37-2.87-2.32zM58.65 79.47c.71-.86.86-1.84-.58-2.51-.85.61-1.65 1.28-.95 2.43.16.26 1.33.33 1.53.08zM260.37 2.99c1.11-.1 2.18-.19 3.46-.3-2.59-1.64-3.01-1.6-3.46.3zm192.96 120.83c.29.65.42 1.28.79 1.69.25.27.83.23 1.27.33.1-.53.43-1.16.25-1.55-.35-.74-.99-1.35-2.3-.47zM274.28 4.31c1.09.11 1.94.19 3.24.32-.88-2.46-.9-2.47-3.24-.32zM49.26 104.85h2.69q-1.56-.71-2.69 0zM373.49 9.49h2.35q-1.62-1.55-2.35 0zm-81.8-5.12c-.13.09-.13.36-.25.76.75.14 1.48.28 2.77.52-.79-1.5-1.36-2.05-2.52-1.27zm-22.77-.31c.72-.1 1.45-.2 2.41-.33-1.21-1.16-1.69.25-2.42.32h.01zm-.71-2.15c-.21.5-.42.99-.61 1.44.44.24.87.48 1.31.71.24-.83.81-1.76-.7-2.15zM58.85 11.56c-.02-.14-.04-.28-.07-.42-.83.12-1.66.25-2.49.37.02.16.05.32.07.48.83-.14 1.66-.29 2.49-.43zm221.97-7.65h-2.78c1.3.83 1.95 1.46 2.78 0zM222.36.67c-.07-.23-.22-.45-.34-.67-.24.14-.38.23-.53.31.16.21.3.44.49.62.02.02.39-.21.38-.26z" fill="#43c0a3" data-name="Capa 1"/></svg>