<svg version="1.1" id="prefix__Capa_1" xmlns="http://www.w3.org/2000/svg" x="0" y="0" viewBox="0 0 1080 1080" xml:space="preserve"><style>.prefix__st0{fill:#6fc0af}</style><path class="prefix__st0" d="M426.8 200.8c141.3-77.4 317.7-19.2 385.1 89.2l50.6-36.3c-29.5-56.3-68.7-100.4-117.8-132.5-79-54.2-228.7-63.8-324-22.5-251.2 94.6-273.9 489.5-43.2 618.9 97.9 61.1 275.6 59.1 367.1-3.4 49.1-32 88.3-76.2 117.8-132.5l-50.6-36.3C744.5 653.9 578.2 720 428.7 634.6c-145.4-83.2-164.6-313-1.9-433.8z"/><path class="prefix__st0" d="M629 257.6L510.2 274l-60.1 28.7-37.1 77 50.6 71.7 368.3 42 4-8.8-135.4-119.8z"/><g><path class="prefix__st0" d="M55.3 871.7c8.2-4.9 17.6-7.4 28-7.4 9.8 0 18.7 1.9 26.7 5.8s15.3 10.7 22.1 20.5l26.6-8.9c-7.2-13.8-16.9-24.7-29-32.6-12.1-7.9-27.5-11.8-46.4-11.8-12.1 0-23.2 2.1-33.3 6.3-10.1 4.2-19 10.1-26.5 17.6s-13.3 16.5-17.4 26.9C2 898.5 0 909.8 0 922.1c0 16.3 3.4 30.8 10.3 43.6 6.8 12.8 16.5 22.9 29.1 30.2 12.6 7.3 27.2 11 44 11 18.8 0 34.3-4 46.4-11.8s21.8-18.8 29-32.6l-26.6-8.9c-6.8 9.8-14.1 16.7-22.1 20.5-8 3.9-16.9 5.8-26.7 5.8-10.5 0-19.8-2.5-28-7.4s-14.7-11.7-19.6-20.4-7.2-18.7-7.2-30 2.4-21.3 7.2-30 11.3-15.5 19.5-20.4zM182.2 839.7h28v164.5h-28zM358.3 953.6l-86.5-113.9h-24.6v164.5h28V890.3l86.5 113.9h24.6V839.7h-28zM423.1 1004.2h101.7v-26.6h-73.7v-42.7h59.7v-26.6h-59.7v-42.1h73.7v-26.5H423.1zM646.1 942c8.7-4.6 15.5-11 20.4-19.2 4.9-8.2 7.4-17.6 7.4-28.3s-2.5-20-7.4-28.3c-4.9-8.2-11.7-14.7-20.4-19.5-8.7-4.8-18.8-7.1-30.2-7.1h-60.6v164.5h28v-55.3h31.3l30.3 55.3h30.7l-33.1-60.5c1.1-.4 2.4-1 3.6-1.6zm-62.9-75.8h29c10 0 17.9 2.4 23.8 7.1s8.8 11.8 8.8 21.1c0 8.7-2.9 15.5-8.8 20.4-5.9 4.9-13.8 7.4-23.8 7.4h-29v-56zM853.4 918.2h-80.5V944h53.5c-1.2 4.4-3 8.5-5.5 12.3-4.8 7.4-11.2 13.2-19.2 17.5-8.1 4.3-17.1 6.4-27.1 6.4s-19.6-2.5-27.8-7.5-14.7-11.8-19.6-20.5c-4.8-8.7-7.2-18.6-7.2-29.7s2.4-21.7 7.2-30.4 11.4-15.5 19.6-20.4c8.2-4.9 17.5-7.4 28-7.4 9.7 0 18.5 1.8 26.5 5.6 8 3.7 15.3 10.4 22.1 20L850 881c-7.2-13.5-16.9-24.2-29-32s-27.5-11.7-46.2-11.7c-12.1 0-23.2 2.1-33.3 6.3-10.2 4.2-19 10.1-26.5 17.8-7.5 7.7-13.3 16.7-17.4 27.1-4.1 10.4-6.2 21.8-6.2 34.2 0 16.1 3.5 30.5 10.4 43.2 6.9 12.7 16.6 22.8 29.1 30.1 12.5 7.3 27.1 11 43.8 11 11.3 0 21.8-1.9 31.4-5.7 9.7-3.8 18.2-9.1 25.5-16 7.3-6.8 13-14.8 17.2-23.9s6.2-19 6.2-29.6c0-2.2-.2-4.6-.5-7s-.6-4.7-1.1-6.6zM878 839.7h28v164.5h-28zM987.2 839.7l-58.5 164.5H957l12.6-35.8h69.5l12.3 35.8h28.5l-57.8-164.5h-34.9zm-8.4 102.6l26-73.7 25.4 73.7h-51.4z"/></g></svg>