<svg id="prefix__Capa_1" data-name="Capa 1" xmlns="http://www.w3.org/2000/svg" viewBox="0 0 1080 1080"><defs><style>.prefix__cls-1{fill:#6fc0af;stroke-width:0}</style></defs><path class="prefix__cls-1" d="M362.58 200.15c221.51-121.37 497.89-30.12 603.5 139.86l79.24-56.91c-46.15-88.2-107.68-157.42-184.61-207.68C736.99-9.62 502.33-24.64 353.05 40.04-40.58 188.37-76.2 807.27 285.36 1009.98c153.5 95.78 431.99 92.63 575.35-5.38 76.93-50.23 138.46-119.47 184.61-207.67l-79.24-56.94c-105.41 170.03-366.12 273.7-600.46 139.86-228.01-130.22-258.03-490.46-3.03-679.7z"/><path class="prefix__cls-1" d="M679.52 289.18L493.37 314.8l-94.27 44.98-58.08 120.62 79.19 112.52 577.26 65.72 6.27-13.69-212.12-187.89-112.1-167.88z"/></svg>