<svg width="609" height="139" viewBox="0 0 609 139" fill="none" xmlns="http://www.w3.org/2000/svg">
    <path d="M42.4045 25.5926C71.05 10.092 106.744 21.7453 120.39 43.435L130.653 36.1865C124.676 24.9235 116.725 16.058 106.801 9.64592C90.7861 -1.22681 60.4489 -3.17832 41.1639 5.12956C-9.69885 24.0871 -14.3227 103.151 32.4236 129.079C52.2725 141.29 88.2486 140.899 106.801 128.41C116.725 121.997 124.676 113.132 130.653 101.869L120.39 94.5647C106.744 116.31 73.08 129.525 42.7992 112.463C13.3078 95.7914 9.41698 49.7356 42.4045 25.5926Z" fill="#6FC0AF"/>
    <path d="M83.3428 36.9673L59.2647 40.257L47.0847 46L39.585 61.3891L49.8478 75.7745L124.45 84.1382L125.24 82.4097L97.8347 58.4339L83.3428 36.9673Z" fill="#6FC0AF"/>
    <path d="M191.666 55.4788C194.993 53.4716 198.827 52.5237 203.056 52.5237C207.06 52.5237 210.669 53.3043 213.939 54.8655C217.21 56.4267 220.199 59.1588 222.962 63.1176L233.788 59.4934C230.856 53.9176 226.909 49.5128 222.003 46.3346C217.097 43.1564 210.782 41.5394 203.113 41.5394C198.207 41.5394 193.639 42.3758 189.523 44.0485C185.407 45.7212 181.798 48.1188 178.753 51.1297C175.708 54.1964 173.339 57.7649 171.648 62.0025C169.956 66.24 169.11 70.7564 169.11 75.6631C169.11 82.2425 170.52 88.0413 173.283 93.2267C176.046 98.3564 180.05 102.427 185.125 105.382C190.256 108.337 196.233 109.787 203.056 109.787C210.725 109.787 217.041 108.17 221.947 104.992C226.853 101.813 230.8 97.4085 233.732 91.8328L222.905 88.2085C220.142 92.1673 217.154 94.8994 213.883 96.4606C210.612 98.0219 207.004 98.8025 203 98.8025C198.714 98.8025 194.936 97.7988 191.609 95.8473C188.282 93.8958 185.632 91.1079 183.659 87.5952C181.685 84.0825 180.726 80.0679 180.726 75.5516C180.726 71.0352 181.685 66.9649 183.659 63.5079C185.632 60.1625 188.339 57.4303 191.666 55.4788Z" fill="#6FC0AF"/>
    <path d="M254.709 42.5989H243.318V108.839H254.709V42.5989Z" fill="#6FC0AF"/>
    <path d="M315.045 88.4316L279.858 42.5989H269.821V108.839H281.211V62.9504L316.454 108.839H326.492V42.5989H315.045V88.4316Z" fill="#6FC0AF"/>
    <path d="M341.435 108.839H382.881V98.1334H352.882V80.9043H377.129V70.1989H352.882V53.3043H382.881V42.5989H341.435V108.839Z" fill="#6FC0AF"/>
    <path d="M432.277 83.8037C435.83 81.9637 438.593 79.3988 440.623 76.0534C442.653 72.7079 443.611 68.9722 443.611 64.6788C443.611 60.3855 442.596 56.594 440.623 53.3043C438.649 50.0146 435.83 47.394 432.277 45.4425C428.725 43.5467 424.665 42.5431 419.984 42.5431H395.286V108.783H406.677V86.4801H419.421L431.77 108.783H444.288L430.811 84.417C431.262 84.2498 431.77 84.0267 432.277 83.8037ZM406.677 53.3043H418.462C422.522 53.3043 425.736 54.2522 428.161 56.2037C430.586 58.1552 431.77 60.9431 431.77 64.7346C431.77 68.2473 430.586 70.9794 428.161 72.9867C425.736 74.994 422.522 75.9419 418.462 75.9419H406.677V53.3043Z" fill="#6FC0AF"/>
    <path d="M516.691 74.2134H483.929V84.64H505.696C505.188 86.4243 504.455 88.0413 503.44 89.6025C501.523 92.6134 498.873 94.9552 495.602 96.6279C492.331 98.3564 488.666 99.1928 484.606 99.1928C480.546 99.1928 476.655 98.1891 473.272 96.1819C469.889 94.1746 467.238 91.3867 465.321 87.9297C463.404 84.4728 462.389 80.4582 462.389 75.9419C462.389 71.4255 463.348 67.1879 465.321 63.6752C467.295 60.1625 469.945 57.4303 473.272 55.4231C476.599 53.4158 480.433 52.4679 484.663 52.4679C488.61 52.4679 492.162 53.1928 495.433 54.6982C498.703 56.2037 501.692 58.88 504.455 62.7831L515.282 59.1588C512.349 53.6946 508.402 49.4012 503.496 46.2788C498.591 43.1564 492.331 41.5394 484.719 41.5394C479.813 41.5394 475.246 42.3758 471.129 44.0485C467.013 45.7212 463.404 48.1188 460.359 51.1855C457.314 54.2522 454.946 57.8764 453.254 62.114C451.562 66.2958 450.716 70.8679 450.716 75.8861C450.716 82.354 452.126 88.2085 454.946 93.2825C457.765 98.3564 461.712 102.427 466.787 105.382C471.862 108.337 477.839 109.787 484.663 109.787C489.23 109.787 493.516 109.006 497.463 107.501C501.41 105.995 504.85 103.821 507.838 101.089C510.827 98.3564 513.139 95.1225 514.831 91.4425C516.522 87.7625 517.368 83.8037 517.368 79.5103C517.368 78.6182 517.312 77.6703 517.199 76.6667C517.086 75.8303 516.917 74.994 516.691 74.2134Z" fill="#6FC0AF"/>
    <path d="M538.119 42.5989H526.729V108.839H538.119V42.5989Z" fill="#6FC0AF"/>
    <path d="M571.219 42.5989L547.423 108.839H558.927L564.058 94.4534H592.365L597.384 108.839H609L585.486 42.5989H571.219ZM567.78 83.9152L578.381 54.2522L588.7 83.9152H567.78Z" fill="#6FC0AF"/>
    </svg>
    